<?xml version="1.0" standalone="no"?>
<!DOCTYPE svg PUBLIC "-//W3C//DTD SVG 1.1//EN" "http://www.w3.org/Graphics/SVG/1.1/DTD/svg11.dtd" >
<svg xmlns="http://www.w3.org/2000/svg">
<metadata></metadata>
<defs>
<font id="SiemensSerifSemiboldRegular" horiz-adv-x="1179" >
<font-face units-per-em="2048" ascent="1638" descent="-410" />
<missing-glyph horiz-adv-x="512" />
<glyph unicode="&#xfb01;" horiz-adv-x="1396" d="M72 967v73h168v72q0 120 12.5 183.5t44.5 109.5q79 115 258 115q121 0 258 -58l-4 -231h-147l-13 186q-38 33 -78 33q-34 0 -61.5 -20.5t-40.5 -57.5q-20 -54 -20 -217v-115h221v-73h-221v-525q0 -228 10 -368l145 -6v-68h-526v68l151 6q11 125 11 368v525h-168zM811 0 v68l145 6q11 158 11 368v156q0 208 -11 369l-143 6v67l373 11q-10 -228 -10 -435v-174q0 -215 10 -368l145 -6v-68h-520zM948 1362q0 52 35 86.5t88 34.5q54 0 88.5 -34.5t34.5 -88.5t-34.5 -88.5t-88.5 -34.5t-88.5 35t-34.5 90z" />
<glyph unicode="&#xfb02;" horiz-adv-x="1366" d="M72 967v73h168v39q0 133 18.5 203t65.5 121q110 119 381 119q193 0 450 -54q-10 -295 -10 -428v-604q0 -222 10 -362l145 -6v-68h-520v68l146 6q10 137 10 368v582q0 176 -8 360q-117 60 -223 60q-81 0 -140.5 -32t-87.5 -91q-28 -64 -28 -203v-78h233v-73h-233v-525 q0 -228 10 -368l145 -6v-68h-526v68l151 6q11 128 11 368v525h-168z" />
<glyph horiz-adv-x="0" />
<glyph horiz-adv-x="2048" />
<glyph unicode=" "  horiz-adv-x="512" />
<glyph unicode="&#x09;" horiz-adv-x="512" />
<glyph unicode="&#xa0;" horiz-adv-x="512" />
<glyph unicode="!" horiz-adv-x="675" d="M201 1321q0 51 37.5 84t97.5 33t97.5 -33t37.5 -86q0 -42 -16 -158l-80 -735h-78l-80 735q-16 124 -16 160zM205 111q0 54 37 90.5t92 36.5q56 0 92.5 -37t36.5 -92t-36.5 -92t-92.5 -37q-57 0 -93 36.5t-36 94.5z" />
<glyph unicode="&#x22;" horiz-adv-x="675" d="M57 1327q0 51 29.5 81t79.5 30t79 -30t29 -81q0 -21 -10 -96l-55 -326h-86l-55 326q-11 64 -11 96zM403 1327q0 51 29 81t80 30q49 0 77.5 -30t28.5 -81q0 -48 -10 -96l-53 -326h-86l-55 326q-11 60 -11 96z" />
<glyph unicode="#" d="M88 418v131h207l45 317h-184v131h202l60 420h145l-61 -420h258l59 420h146l-62 -420h189v-131h-207l-45 -317h186v-131h-205l-59 -418h-146l60 418h-256l-60 -418h-145l59 418h-186zM438 549h258l45 317h-258z" />
<glyph unicode="$" d="M147 68v290h166l23 -239q98 -66 215 -66v572q-196 82 -266 131q-73 51 -105.5 116.5t-32.5 161.5q0 173 106.5 279t297.5 123v161h88v-159q93 0 191.5 -27t168.5 -70v-276h-163l-21 238q-79 59 -176 65v-543q127 -55 163 -72t77 -42q91 -54 133.5 -127.5t42.5 -177.5 q0 -184 -109 -294.5t-307 -127.5v-166h-88v162q-100 1 -209 25t-195 63zM338 1110q0 -86 46 -139t167 -107v500q-102 -22 -157.5 -88t-55.5 -166zM639 57q101 17 162 90.5t61 176.5q0 45 -11.5 81t-28 60.5t-49 48t-60 38t-74.5 36.5v-531z" />
<glyph unicode="%" horiz-adv-x="1720" d="M78 1032q0 398 311 398q313 0 313 -402q0 -401 -311 -401q-158 0 -235.5 100.5t-77.5 304.5zM246 1030q0 -340 143 -340q146 0 146 338t-146 338q-143 0 -143 -336zM567 -41l469 1499h119l-471 -1499h-117zM1018 393q0 398 313 398q311 0 311 -402q0 -401 -311 -401 q-158 0 -235.5 100.5t-77.5 304.5zM1186 391q0 -340 143 -340q146 0 146 338t-146 338q-143 0 -143 -336z" />
<glyph unicode="&#x26;" horiz-adv-x="1529" d="M111 371q0 189 157 301q51 38 187 88q-93 120 -129.5 200.5t-36.5 163.5q0 148 103.5 231t287.5 83q183 0 288 -76.5t105 -210.5q0 -123 -88.5 -210t-286.5 -161l379 -446q50 71 79 175.5t30 219.5h-119v68h403v-68h-116q-3 -135 -49.5 -248.5t-149.5 -234.5l37 -43 q80 -90 117.5 -112.5t107.5 -22.5h66v-68h-260q-79 0 -115 16t-80 72l-24 27q-100 -78 -184.5 -106.5t-215.5 -28.5q-234 0 -363.5 102.5t-129.5 288.5zM334 383q0 -147 88.5 -236.5t234.5 -89.5q169 0 293 121l-448 522q-168 -98 -168 -317zM467 1167q0 -140 180 -329l12 4 q114 47 175 124.5t61 174.5q0 103 -59 166t-154 63t-155 -56t-60 -147z" />
<glyph unicode="'" horiz-adv-x="348" d="M66 1327q0 51 29 81t79 30t79.5 -30t29.5 -81q0 -13 -11 -96l-55 -326h-86l-55 326q-10 58 -10 96z" />
<glyph unicode="(" horiz-adv-x="778" d="M166 608q0 309 130.5 544.5t387.5 389.5l29 -39q-174 -168 -252 -379.5t-78 -515.5t78 -515.5t252 -379.5l-29 -39q-257 154 -387.5 389.5t-130.5 544.5z" />
<glyph unicode=")" horiz-adv-x="778" d="M68 -287q174 169 251.5 380t77.5 515t-77.5 515t-251.5 380l28 39q256 -154 387 -390t131 -544t-131 -544t-387 -390z" />
<glyph unicode="*" horiz-adv-x="1064" d="M141 1214q0 38 23 64.5t57 26.5q30 0 72 -23l196 -106l-38 210q-9 44 -9 60q0 34 24.5 56t63.5 22t63.5 -22t24.5 -56q0 -19 -8 -60l-39 -210l197 106q42 23 72 23q34 0 57 -26.5t23 -64.5t-24.5 -55.5t-90.5 -28.5l-211 -28l162 -158q31 -31 39 -44.5t8 -35.5 q0 -35 -26.5 -60.5t-61.5 -25.5q-29 0 -49 15.5t-37 52.5l-99 207l-98 -207q-33 -68 -88 -68q-35 0 -61.5 25.5t-26.5 60.5q0 22 7.5 34t41.5 46l162 158l-211 28q-66 11 -90.5 28.5t-24.5 55.5z" />
<glyph unicode="+" d="M74 449v143h438v448h154v-448h438v-143h-438v-449h-154v449h-438z" />
<glyph unicode="," horiz-adv-x="589" d="M131 -330q57 76 95.5 162.5t49.5 159.5q-110 21 -110 121q0 57 36.5 93t96.5 36q63 0 101 -39t38 -105q0 -172 -248 -475z" />
<glyph unicode="-" horiz-adv-x="729" d="M98 496v151h533v-151h-533z" />
<glyph unicode="." horiz-adv-x="589" d="M160 115q0 56 38 93.5t95 37.5t95 -38t38 -95t-38 -95t-95 -38q-59 0 -96 37.5t-37 97.5z" />
<glyph unicode="/" horiz-adv-x="442" d="M14 -41l287 1499h129l-289 -1499h-127z" />
<glyph unicode="0" d="M109 715q0 358 121.5 540.5t359.5 182.5q479 0 479 -729t-479 -729q-481 0 -481 735zM332 715q0 -350 61.5 -508t196.5 -158q134 0 195 158t61 502t-61.5 501.5t-196.5 157.5q-133 0 -194.5 -156.5t-61.5 -496.5z" />
<glyph unicode="1" d="M174 1174q148 62 239.5 116.5t164.5 126.5h151q-10 -182 -10 -440v-535q0 -241 10 -368l195 -6v-68h-627v68l201 6q10 127 10 368v523q0 163 -6 292q-54 -40 -111.5 -70t-185.5 -85z" />
<glyph unicode="2" d="M139 1079v258q247 101 461 101q202 0 309 -88.5t107 -255.5q0 -147 -76.5 -273t-284.5 -325q-151 -139 -366 -324h712l-8 -172h-852l6 158q209 193 258 241.5t134 143.5q138 158 196 278.5t58 249.5q0 135 -64 212t-178 77q-107 0 -223 -70l-21 -211h-168z" />
<glyph unicode="3" d="M123 61l6 256h166l16 -211q103 -57 199 -57q137 0 216 92t79 250q0 163 -92.5 237t-296.5 74q-41 0 -74 -2v78q29 -4 72 -4q186 0 281.5 82.5t95.5 241.5q0 126 -67 198t-185 72q-93 0 -189 -51l-14 -221h-168l-6 260q230 82 422 82q201 0 313.5 -91.5t112.5 -254.5 q0 -148 -97.5 -236.5t-283.5 -110.5q105 -9 165.5 -28t112.5 -58q121 -92 121 -266q0 -186 -133.5 -299.5t-353.5 -113.5q-213 0 -418 81z" />
<glyph unicode="4" d="M49 426v133l633 858h168q-8 -169 -8 -403v-451h239l-10 -137h-229v-92q0 -162 8 -260l170 -6v-68h-571v68l176 6q8 78 8 260v92h-584zM160 563h477l6 664z" />
<glyph unicode="5" d="M152 68l8 251h168l12 -213q102 -57 203 -57q126 0 203 110t77 290q0 163 -76.5 258.5t-205.5 95.5q-150 0 -281 -137h-67l30 751h748l-6 -172h-662l-18 -469q85 69 162.5 98t177.5 29q196 0 309 -116.5t113 -319.5q0 -230 -128.5 -358.5t-357.5 -128.5q-211 0 -409 88z " />
<glyph unicode="6" d="M119 532q0 257 88 467.5t246 331.5q181 138 477 164l10 -63q-266 -35 -405 -191t-179 -463q117 135 295 135q192 0 308 -124t116 -330q0 -224 -125.5 -351.5t-345.5 -127.5q-236 0 -360.5 141.5t-124.5 410.5zM338 446q0 -185 69 -291t189 -106q118 0 187 107t69 290 q0 185 -63 288.5t-177 103.5q-123 0 -198.5 -108.5t-75.5 -283.5z" />
<glyph unicode="7" d="M166 1241l18 176h883v-86q-261 -390 -421 -746t-177 -585h-225q40 246 184 514.5t483 726.5h-745z" />
<glyph unicode="8" d="M115 346q0 120 73 205t246 164q-142 85 -197 161.5t-55 190.5q0 169 113 270t303 101q183 0 292 -83.5t109 -221.5q0 -103 -64.5 -183t-217.5 -166q40 -21 61.5 -33t56.5 -32.5t55 -35t48 -37t43.5 -42.5t34 -47t27.5 -54t15.5 -61t6.5 -71q0 -180 -130.5 -285.5 t-350.5 -105.5q-207 0 -338 102.5t-131 263.5zM281 352q0 -134 84 -218.5t217 -84.5q132 0 213.5 71.5t81.5 188.5q0 107 -77 182.5t-298 184.5l-15 -8q-96 -47 -151 -131.5t-55 -184.5zM352 1128q0 -92 59 -154.5t234 -154.5l19 12q172 113 172 291q0 114 -65.5 180 t-178.5 66q-107 0 -173.5 -66.5t-66.5 -173.5z" />
<glyph unicode="9" d="M104 958q0 224 125.5 352t345.5 128q236 0 361 -142t125 -411q0 -257 -88 -467.5t-246 -331.5q-181 -138 -477 -164l-10 64q266 35 404.5 190.5t178.5 462.5q-117 -135 -297 -135q-192 0 -307 123.5t-115 330.5zM328 971q0 -185 62.5 -288t176.5 -103q123 0 199 108 t76 283q0 185 -69 291t-189 106q-118 0 -187 -107t-69 -290z" />
<glyph unicode=":" horiz-adv-x="589" d="M160 115q0 56 38 93.5t95 37.5t95 -38t38 -95t-38 -95t-95 -38q-59 0 -96 37.5t-37 97.5zM160 862q0 56 38 93.5t95 37.5t95 -38t38 -95t-38 -95t-95 -38q-59 0 -96 37.5t-37 97.5z" />
<glyph unicode=";" horiz-adv-x="589" d="M131 -330q57 76 95.5 162.5t49.5 159.5q-110 21 -110 121q0 57 36.5 93t96.5 36q63 0 101 -39t38 -105q0 -172 -248 -475zM172 862q0 56 38 93.5t95 37.5t95 -38t38 -95t-38 -95t-95 -38q-59 0 -96 37.5t-37 97.5z" />
<glyph unicode="&#x3c;" d="M70 457v127l1030 477v-158l-819 -383l819 -383v-157z" />
<glyph unicode="=" d="M74 289v143h1030v-143h-1030zM74 606v144h1030v-144h-1030z" />
<glyph unicode="&#x3e;" d="M80 -20v157l819 383l-819 383v158l1030 -477v-127z" />
<glyph unicode="?" horiz-adv-x="897" d="M98 1346q194 92 373 92q183 0 290 -84.5t107 -227.5q0 -147 -118 -262q-31 -30 -64 -56t-123 -91q-90 -66 -109.5 -100t-19.5 -123v-78h-78v80v72.5t5.5 51t9 39.5t21.5 35t32 39.5t51 50.5q98 98 139 179.5t41 175.5q0 104 -59 167.5t-156 63.5q-76 0 -149 -47l-17 -211 h-163zM262 111q0 54 37 90.5t92 36.5t92 -37t37 -92t-37 -92t-92 -37q-57 0 -93 36.5t-36 94.5z" />
<glyph unicode="@" horiz-adv-x="1716" d="M98 715q0 307 205 512q217 211 590 211q336 0 530.5 -164t194.5 -447q0 -142 -53.5 -261t-145.5 -187t-202 -68q-155 0 -173 148q-102 -150 -262 -150q-128 0 -200 77.5t-72 215.5q0 204 122 349t292 145q56 0 99 -15t91 -51l6 47h162l-84 -475q-14 -83 -14 -123 q0 -37 20.5 -58.5t57.5 -21.5q69 0 132 59.5t101.5 157t38.5 203.5q0 247 -167 395t-447 148q-293 0 -467 -176t-174 -471q0 -157 46 -273.5t144 -208.5q96 -90 223.5 -138t270.5 -48q86 0 157 15.5t156 52.5l27 -62q-89 -40 -171.5 -56.5t-189.5 -16.5q-250 0 -442 91.5 t-297 258.5t-105 385zM682 600q0 -199 156 -199q112 0 186 140l72 420q-33 32 -63 44.5t-72 12.5q-121 0 -207 -146q-72 -120 -72 -272z" />
<glyph unicode="A" horiz-adv-x="1355" d="M-12 0v68l112 6q24 45 123 293l256 684q91 236 133 366h127q16 -59 121 -330l295 -788q64 -168 92 -225l119 -6v-68h-532v68l157 6q-35 113 -67 198l-80 220h-475l-54 -144q-64 -169 -88 -276l150 -4v-68h-389zM397 569h420l-207 576z" />
<glyph unicode="B" horiz-adv-x="1261" d="M59 0v70l168 6q11 125 11 366v512q0 250 -11 389l-168 7v67h514q152 0 240 -15t148 -52q69 -43 106 -118t37 -173q0 -142 -80 -221t-252 -105q109 -15 166.5 -34t99.5 -56q103 -86 103 -264q0 -100 -36.5 -177.5t-105.5 -121.5q-122 -80 -385 -80h-555zM453 440 q0 -224 6 -362h82q192 0 281 73.5t89 233.5q0 161 -86 233t-280 72h-92v-250zM453 768h75q180 0 266.5 70.5t86.5 216.5q0 155 -80.5 220.5t-253.5 65.5h-88q-6 -159 -6 -364v-209z" />
<glyph unicode="C" horiz-adv-x="1353" d="M125 696q0 371 203 574q165 168 450 168q118 0 223 -23.5t228 -77.5v-288h-166l-21 231q-121 78 -251 78q-201 0 -315 -176t-114 -486q0 -302 116 -469.5t327 -167.5q122 0 256 70l18 242h168v-303q-142 -50 -243 -70.5t-207 -20.5q-315 0 -493.5 191t-178.5 528z" />
<glyph unicode="D" horiz-adv-x="1439" d="M59 0v68l168 6q11 139 11 368v533q0 229 -11 368l-168 7v67h451q241 0 372 -33t228 -118q205 -178 205 -549q0 -394 -246 -584q-93 -73 -215 -103t-322 -30h-473zM457 440q0 -205 10 -362h82q274 0 403 153t129 476q0 324 -122.5 478t-380.5 154h-111q-10 -157 -10 -362 v-537z" />
<glyph unicode="E" horiz-adv-x="1200" d="M59 0v68l168 6q11 139 11 366v535q0 229 -11 368l-168 7v67h1018v-368h-164l-24 290h-422q-10 -127 -10 -364v-215h471v-82h-471v-238q0 -239 10 -362h455l24 291h168v-369h-1055z" />
<glyph unicode="F" horiz-adv-x="1161" d="M59 0v68l168 6q11 139 11 368v533q0 229 -11 368l-168 7v67h1020v-368h-164l-22 290h-426q-10 -185 -10 -364v-211h477v-82h-477v-240q0 -258 10 -368l176 -6v-68h-584z" />
<glyph unicode="G" horiz-adv-x="1476" d="M125 696q0 368 209 574q90 87 201 127.5t260 40.5q121 0 229 -23t236 -76v-290h-166l-23 235q-136 74 -262 74q-212 0 -331.5 -174.5t-119.5 -485.5q0 -301 119.5 -469t333.5 -168q118 0 238 54v460l-170 7v67h542v-67l-155 -7v-268q0 -166 8 -237q-164 -52 -262 -71 t-207 -19q-318 0 -499 190.5t-181 525.5z" />
<glyph unicode="H" horiz-adv-x="1564" d="M59 0v68l168 6q11 139 11 368v533q0 229 -11 368l-168 7v67h572v-67l-164 -7q-10 -133 -10 -368v-213h651v213q0 241 -10 368l-164 7v67h571v-67l-168 -7q-10 -133 -10 -368v-533q0 -235 10 -368l168 -6v-68h-571v68l164 6q10 127 10 368v240h-651v-240q0 -235 10 -368 l164 -6v-68h-572z" />
<glyph unicode="I" horiz-adv-x="718" d="M72 0v68l168 6q10 130 10 368v533q0 238 -10 368l-168 7v67h573v-67l-166 -7q-10 -133 -10 -368v-533q0 -235 10 -368l166 -6v-68h-573z" />
<glyph unicode="J" horiz-adv-x="722" d="M-111 -190l7 75q20 -2 47 -2q86 0 157.5 33t108.5 90q57 86 57 373v596q0 238 -10 368l-172 7v67h578v-67l-166 -7q-11 -143 -11 -368v-576q0 -149 -8.5 -219.5t-32.5 -122.5q-52 -118 -176.5 -185t-290.5 -67q-11 0 -42.5 2t-45.5 3z" />
<glyph unicode="K" horiz-adv-x="1347" d="M59 0v68l168 6q11 139 11 368v533q0 229 -11 368l-168 7v67h553v-67l-145 -7q-10 -133 -10 -368v-225l587 593l-170 7v67h426v-67l-106 -7q-20 -19 -98.5 -93t-130.5 -122l-318 -315l451 -555q97 -119 159 -184l103 -6v-68h-522v68h135l-516 653v-279q0 -235 10 -368 l143 -6v-68h-551z" />
<glyph unicode="L" horiz-adv-x="1177" d="M59 0v68l168 6q11 139 11 368v533q0 229 -11 368l-168 7v67h578v-67l-170 -7q-10 -167 -10 -368v-533q0 -182 10 -364h442l23 295h168v-373h-1041z" />
<glyph unicode="M" horiz-adv-x="1828" d="M57 0v66l162 6q10 123 10 444v827l-172 7v67h430q23 -84 109 -293l317 -762l320 758q78 184 115 297h419v-67l-176 -7v-901q0 -213 11 -370l165 -6v-66h-573v66l170 6q10 125 10 370v779l-481 -1143h-86l-481 1143v-699q0 -327 10 -450l162 -6v-66h-441z" />
<glyph unicode="N" horiz-adv-x="1517" d="M57 0v68l162 6q10 120 10 491v778l-172 7v67h418q38 -72 189 -291l526 -802v651q0 245 -10 368l-162 7v67h440v-67l-162 -7q-10 -120 -10 -368v-975h-156q-2 4 -7 14.5t-7 13.5t-6.5 11.5t-6.5 12.5t-7.5 12.5t-10 15.5t-11.5 18t-15 23l-18 27t-23 34q-6 10 -60 88 l-632 961v-672q0 -315 10 -485l162 -6v-68h-441z" />
<glyph unicode="O" horiz-adv-x="1556" d="M125 717q0 165 55 313t150 242q175 166 448 166q323 0 498 -224q156 -201 156 -505q0 -173 -53.5 -319t-153.5 -243q-167 -167 -447 -167q-320 0 -497 223q-156 200 -156 514zM358 715q0 -318 109.5 -492t310.5 -174q199 0 309.5 173.5t110.5 486.5t-110 486t-310 173 q-198 0 -309 -172t-111 -481z" />
<glyph unicode="P" horiz-adv-x="1220" d="M59 0v68l168 6q11 139 11 366v535q0 229 -11 368l-168 7v67h539q157 0 235.5 -16t143.5 -60q145 -103 145 -319q0 -218 -151 -320q-66 -43 -152 -60t-231 -17h-133v-185q0 -193 10 -366l197 -6v-68h-603zM455 702h75q98 0 154.5 14t99.5 48q105 82 105 260q0 161 -80 239 t-244 78h-110v-639z" />
<glyph unicode="Q" horiz-adv-x="1556" d="M125 707q0 174 53.5 319.5t153.5 243.5q168 168 446 168q320 0 498 -224q156 -201 156 -505q0 -302 -148 -497t-401 -226q58 -136 132 -196t183 -60q15 0 27 2l10 -76q-41 -8 -90 -8q-184 0 -306 83t-194 257q-239 38 -379.5 232.5t-140.5 486.5zM356 715 q0 -319 110.5 -493.5t311.5 -174.5q200 0 311 173.5t111 488.5q0 313 -111 486t-311 173t-311 -172t-111 -481z" />
<glyph unicode="R" horiz-adv-x="1284" d="M59 0v68l168 6q11 168 11 368v533q0 225 -11 368l-168 7v67h572q126 0 209 -18.5t141 -59.5q133 -94 133 -286q0 -300 -342 -334q137 -23 197 -101t112 -301l64 -243l123 -6v-68h-330l-59 256q-51 227 -113 317q-35 53 -92.5 76t-155.5 23h-63v-230q0 -225 10 -368 l168 -6v-68h-574zM455 748h67q186 0 274.5 74t88.5 229q0 178 -117 247q-71 43 -227 43h-86v-593z" />
<glyph unicode="S" horiz-adv-x="1161" d="M135 66v307h166l23 -256q110 -68 233 -68q131 0 212 76t81 199q0 107 -68 172q-35 32 -71.5 50.5t-202.5 88.5q-203 85 -277 151q-96 84 -96 240q0 190 126 301t343 111t383 -97v-292h-164l-20 251q-92 68 -205 68q-123 0 -197.5 -70.5t-74.5 -187.5q0 -97 60.5 -154 t246.5 -133q133 -54 200.5 -91t114.5 -81q94 -88 94 -248q0 -198 -128.5 -310.5t-352.5 -112.5q-222 0 -426 86z" />
<glyph unicode="T" horiz-adv-x="1241" d="M37 1049v368h1169v-368h-164l-22 290h-279q-10 -188 -10 -397v-467q0 -278 10 -401l191 -6v-68h-621v68l191 6q10 157 10 401v467q0 209 -10 397h-279l-22 -290h-164z" />
<glyph unicode="U" horiz-adv-x="1495" d="M57 1350v67h574v-67l-166 -7q-10 -137 -10 -368v-410q0 -141 6.5 -208.5t25.5 -120.5q31 -83 111.5 -129t194.5 -46q115 0 199 45t128 130q28 54 38.5 132.5t10.5 231.5v375q0 198 -10 368l-162 7v67h441v-67l-162 -7q-10 -127 -10 -368v-404q0 -169 -16 -252.5 t-62 -154.5q-121 -184 -418 -184q-331 0 -459 184q-46 67 -60.5 154t-14.5 284v373q0 229 -11 368z" />
<glyph unicode="V" horiz-adv-x="1347" d="M-12 1350v67h530v-67l-153 -7q24 -100 139 -409l235 -658l236 662q106 307 133 405l-150 7v67h400v-67l-119 -7q-66 -161 -147 -376l-211 -561q-85 -233 -140 -406h-131q-83 250 -145 408l-209 557q-110 275 -152 378z" />
<glyph unicode="W" horiz-adv-x="1888" d="M-4 1350v67h522v-67l-158 -7q17 -100 97 -415l149 -572l225 723q27 82 31 97l41 122q23 74 33 119h127q10 -62 100 -334l232 -737l161 619q85 331 91 378l-154 7v67h403v-67l-120 -7q-13 -41 -25 -80.5t-20 -64.5l-43 -135q-4 -14 -13.5 -46t-13.5 -50l-158 -559 q-71 -261 -104 -408h-133q-12 74 -119 422l-211 672l-236 -756q-79 -257 -96 -338h-133q-52 232 -102 422l-127 471q-78 294 -125 450z" />
<glyph unicode="X" horiz-adv-x="1351" d="M2 0v68l115 6q32 34 170 221l282 389l-233 379q-5 7 -80.5 120t-112.5 160l-120 7v67h530v-67l-135 -7q34 -69 180 -305l119 -190l198 276q25 36 46 62q61 85 106 157l-131 7v67h379v-67l-113 -7q-157 -202 -211 -272l-221 -295l260 -416q23 -34 195 -286l123 -6v-68 h-529v68l123 6q-43 81 -131 221l-186 309l-222 -321q-89 -123 -139 -209l142 -6v-68h-404z" />
<glyph unicode="Y" horiz-adv-x="1228" d="M-35 1350v67h524v-67l-147 -7q32 -66 160 -276l198 -326l179 340q108 198 133 262l-144 7v67h383v-67l-114 -7q-68 -98 -162 -270l-223 -422q-7 -86 -7 -200v-91q0 -150 9 -288l172 -6v-66h-580v66l174 6q6 210 6 288v91q0 96 -6 204l-307 484q-91 141 -139 204z" />
<glyph unicode="Z" horiz-adv-x="1298" d="M109 0v84q87 126 157 240q74 116 90 143q352 543 457 711q56 90 94 161h-583l-23 -290h-168v368h1036v-88q-3 -5 -39 -59l-69 -105q-11 -17 -36.5 -53.5t-44.5 -65.5t-34 -55q-47 -75 -67 -106l-230 -357q-54 -88 -118.5 -192t-77.5 -125q-39 -59 -84 -133h622l23 295 h170v-373h-1075z" />
<glyph unicode="[" horiz-adv-x="778" d="M229 -319v1855h392v-68h-185v-1720h185v-67h-392z" />
<glyph unicode="\" horiz-adv-x="483" d="M29 1458h139l287 -1499h-140z" />
<glyph unicode="]" horiz-adv-x="778" d="M160 -252h184v1720h-184v68h391v-1855h-391v67z" />
<glyph unicode="^" d="M49 561l473 856h135l473 -856h-186l-354 680l-359 -680h-182z" />
<glyph unicode="_" horiz-adv-x="1024" d="M-51 -317h1124v-123h-1124v123z" />
<glyph unicode="`" horiz-adv-x="1024" d="M252 1501q0 17 31 17h180q34 -65 106 -141.5t144 -123.5l-27 -49q-208 80 -328 174q-106 85 -106 123z" />
<glyph unicode="a" horiz-adv-x="1120" d="M104 266q0 126 81.5 208t232.5 108q123 20 293 20v96q0 103 -5 142t-22 71q-45 82 -143 82q-102 0 -172 -86l-17 -180h-164l-6 242q173 92 365 92q219 0 313 -111q37 -43 48.5 -105.5t11.5 -219.5v-385q0 -88 10 -117q16 -39 61 -39q44 0 109 43l37 -55 q-120 -92 -244 -92q-75 0 -116 34.5t-56 110.5q-72 -75 -148.5 -110t-171.5 -35q-134 0 -215.5 78t-81.5 208zM315 305q0 -88 53.5 -144.5t135.5 -56.5q106 0 207 93v335q-212 -1 -304 -54t-92 -173z" />
<glyph unicode="b" horiz-adv-x="1261" d="M57 0v68l146 6q10 133 10 368v613q0 235 -10 368l-144 7v67l369 10q-10 -195 -10 -440v-164q74 85 147 121.5t170 36.5q214 0 328 -187q86 -144 86 -352q0 -113 -25 -210t-74.5 -172t-129.5 -117.5t-183 -42.5q-105 0 -180.5 38t-142.5 125l-6 -143h-351zM418 252 q112 -166 254 -166q116 0 186 120.5t70 319.5t-70 314.5t-190 115.5q-136 0 -250 -163v-541z" />
<glyph unicode="c" horiz-adv-x="993" d="M111 522q0 258 128.5 398.5t364.5 140.5q168 0 316 -57l-7 -265h-163l-19 222q-51 30 -115 30q-132 0 -207 -122t-75 -337q0 -221 83 -343.5t234 -122.5q63 0 116 21.5t110 70.5l51 -58q-123 -120 -324 -120q-235 0 -364 141.5t-129 400.5z" />
<glyph unicode="d" horiz-adv-x="1269" d="M111 514q0 252 111.5 399.5t303.5 147.5q98 0 172.5 -37t145.5 -121v152q0 235 -10 368l-148 7v67l373 10q-10 -290 -10 -440v-567q0 -282 10 -426l145 -6v-68h-350l-6 147q-67 -87 -146.5 -127t-183.5 -40q-190 0 -298.5 142.5t-108.5 391.5zM332 510q0 -192 70.5 -308 t187.5 -116q142 0 254 164v538q-111 168 -256 168q-117 0 -186.5 -121t-69.5 -325z" />
<glyph unicode="e" horiz-adv-x="1110" d="M111 528q0 252 120.5 392.5t337.5 140.5q150 0 250.5 -62t143.5 -182q23 -59 32.5 -122.5t12.5 -168.5h-676q3 -99 11 -149t28 -103q77 -206 288 -206q148 0 265 102l51 -57q-78 -70 -164 -101.5t-199 -31.5q-241 0 -371 142t-130 406zM332 596h454q-4 211 -55.5 304 t-161.5 93t-171.5 -102t-65.5 -295z" />
<glyph unicode="f" horiz-adv-x="749" d="M72 0v68l157 6q11 101 11 368v525h-168v73h168v72q0 119 12.5 183t44.5 110q82 115 262 115q129 0 266 -58l-6 -231h-153l-15 186q-42 33 -80 33q-34 0 -62 -20t-40 -54q-20 -56 -20 -221v-115h233v-73h-233v-525q0 -228 10 -368l194 -6v-68h-581z" />
<glyph unicode="g" horiz-adv-x="1255" d="M111 530q0 243 111.5 387t299.5 144q99 0 171.5 -37t146.5 -125l6 152l352 -11v-67l-147 -6q-11 -180 -11 -406v-442q0 -203 -17 -286.5t-71 -143.5q-65 -71 -171 -110.5t-234 -39.5q-189 0 -381 86l10 236h164l12 -185q86 -59 193 -59q93 0 161 42t93 114q32 84 32 329 v82q-69 -83 -141.5 -120t-167.5 -37q-191 0 -301 135t-110 368zM332 528q0 -187 64.5 -289t183.5 -102q68 0 127.5 37t123.5 117v487q-60 95 -119.5 137.5t-133.5 42.5q-115 0 -180.5 -115t-65.5 -315z" />
<glyph unicode="h" horiz-adv-x="1318" d="M72 0v68l145 6q10 110 10 368v613q0 191 -10 368l-143 7v67l372 10q-10 -343 -10 -440v-199q88 103 172 148t189 45q97 0 168.5 -44t105.5 -124q20 -47 26.5 -110.5t6.5 -209.5v-131q0 -218 10 -368l146 -6v-68h-515v68l140 6q10 117 10 368v148q0 182 -29 256 q-42 96 -151 96q-144 0 -279 -184v-316q0 -255 10 -368l140 -6v-68h-514z" />
<glyph unicode="i" horiz-adv-x="659" d="M72 0v68l145 6q10 113 10 368v156q0 252 -10 369l-143 6v67l372 11q-10 -245 -10 -435v-174q0 -215 10 -368l146 -6v-68h-520zM205 1391q0 53 35.5 87.5t89.5 34.5t89.5 -35t35.5 -89q0 -55 -34.5 -90t-90.5 -35t-90.5 35t-34.5 92z" />
<glyph unicode="j" horiz-adv-x="663" d="M-63 -440l4 67q86 0 139.5 21t89.5 67q39 51 52.5 140.5t13.5 294.5v448q0 182 -11 369l-157 6v67l387 11q-11 -282 -11 -482v-405q0 -203 -13 -292.5t-52 -152.5q-103 -163 -365 -163q-48 0 -77 4zM215 1391q0 53 35.5 87.5t89.5 34.5t89.5 -35t35.5 -89 q0 -55 -34.5 -90t-90.5 -35t-90.5 35t-34.5 92z" />
<glyph unicode="k" horiz-adv-x="1196" d="M68 0v68l145 6q10 153 10 368v613q0 218 -10 368l-143 7v67l372 10q-10 -222 -10 -440v-481l445 381l-148 6v67h385v-67l-90 -6q-32 -24 -69 -52t-84.5 -65t-75.5 -59l-172 -156l262 -344q129 -173 172 -213l119 -10v-68h-336q-23 41 -127 184l-281 379v-127 q0 -167 10 -362l142 -6v-68h-516z" />
<glyph unicode="l" horiz-adv-x="659" d="M72 0v68l145 6q10 102 10 368v613q0 231 -10 368l-143 7v67l372 10q-10 -287 -10 -440v-631q0 -222 10 -362l146 -6v-68h-520z" />
<glyph unicode="m" horiz-adv-x="1943" d="M72 0v68l145 6q10 110 10 368v156q0 169 -12 369l-141 6v67l352 11l6 -179q88 102 168.5 145.5t179.5 43.5q221 0 283 -211q84 109 170.5 160t191.5 51q95 0 164 -43t103 -123q22 -51 29.5 -115t7.5 -200v-138q0 -276 10 -368l145 -6v-68h-512v68l137 6q11 165 11 368 v133q0 128 -5 179t-22 90q-42 98 -145 98q-138 0 -267 -180v-320q0 -225 11 -368l137 -6v-68h-502v68l135 6q10 123 10 368v152q0 186 -26 252q-42 96 -144 96q-137 0 -266 -176v-324q0 -258 10 -368l138 -6v-68h-512z" />
<glyph unicode="n" horiz-adv-x="1318" d="M72 0v68l145 6q10 98 10 368v156q0 185 -12 369l-141 6v67l352 11l6 -189q89 107 173.5 153t191.5 46q97 0 168.5 -44t105.5 -124q20 -47 26.5 -110.5t6.5 -209.5v-131q0 -218 10 -368l146 -6v-68h-515v68l140 6q10 110 10 368v148q0 182 -29 256q-42 96 -151 96 q-144 0 -279 -184v-316q0 -210 10 -368l140 -6v-68h-514z" />
<glyph unicode="o" horiz-adv-x="1212" d="M111 526q0 254 130 394.5t365 140.5q236 0 366 -141.5t130 -399.5t-130 -399t-366 -141q-239 0 -367 141.5t-128 404.5zM334 524q0 -233 69.5 -355t202.5 -122q132 0 202.5 121.5t70.5 351.5t-70.5 351.5t-202.5 121.5t-202 -121t-70 -348z" />
<glyph unicode="p" horiz-adv-x="1273" d="M68 -373l145 6q10 105 10 387v580q0 196 -10 369l-143 6v67l352 11l6 -154q82 91 153 126.5t169 35.5q190 0 301.5 -145.5t111.5 -393.5q0 -113 -25 -209.5t-74 -171.5t-129 -118t-183 -43q-102 0 -175.5 36t-144.5 123v-143q0 -216 10 -363l164 -6v-67h-538v67zM432 252 q115 -166 252 -166q117 0 187.5 120t70.5 318q0 201 -70 316.5t-190 115.5q-138 0 -250 -163v-541z" />
<glyph unicode="q" horiz-adv-x="1271" d="M111 516q0 249 112 397t301 148q97 0 172.5 -37.5t149.5 -120.5l6 150l352 -11v-67l-143 -6q-10 -173 -10 -369v-598q0 -219 10 -369l145 -6v-67h-538v67l163 6q11 191 11 369v141q-124 -163 -320 -163q-192 0 -301.5 143t-109.5 393zM332 510q0 -191 70.5 -307.5 t187.5 -116.5q70 0 131 39t121 123v538q-52 83 -117.5 126.5t-134.5 43.5q-118 0 -188 -121t-70 -325z" />
<glyph unicode="r" horiz-adv-x="921" d="M72 0v68l145 6q10 153 10 368v156q0 185 -12 369l-141 6v67l344 11l6 -185q54 100 125.5 144.5t177.5 44.5q71 0 150 -23l-9 -287h-161l-17 205q-24 4 -31 4q-54 0 -102 -36t-80 -99q-41 -87 -41 -231v-146q0 -215 10 -368l160 -6v-68h-534z" />
<glyph unicode="s" horiz-adv-x="966" d="M113 752q0 145 99.5 227t272.5 82q179 0 336 -66l-6 -250h-158l-16 199q-68 45 -162 45q-92 0 -149.5 -49t-57.5 -127q0 -69 48.5 -105.5t201.5 -82.5q121 -37 167.5 -57t84.5 -52q90 -74 90 -221q0 -152 -102 -233.5t-291 -81.5t-354 67l6 252h162l18 -203 q76 -45 176 -45q94 0 151.5 51.5t57.5 137.5q0 79 -49 122q-26 23 -56 35t-141 45q-186 57 -257.5 124.5t-71.5 185.5z" />
<glyph unicode="t" horiz-adv-x="751" d="M59 967v73h41q126 0 183 62.5t88 234.5h75v-297h275v-73h-275v-658q0 -136 27.5 -186.5t101.5 -50.5q60 0 127 53l46 -55q-59 -50 -113 -70t-129 -20q-180 0 -238 120q-32 60 -32 207v660h-177z" />
<glyph unicode="u" horiz-adv-x="1318" d="M61 973v67l373 11q-10 -303 -10 -435v-165q0 -112 6 -168.5t23 -94.5q43 -100 151 -100q69 0 142 50.5t137 144.5v684l-154 6v67l373 11q-10 -388 -10 -433v-176q0 -225 10 -368l145 -6v-68h-348l-6 180q-94 -109 -178 -154.5t-191 -45.5q-100 0 -171 43t-105 124 q-20 50 -26.5 111.5t-6.5 208.5v131q0 225 -8 369z" />
<glyph unicode="v" horiz-adv-x="1107" d="M8 973v67h455v-67l-111 -6q22 -84 82 -244l180 -483l181 471q54 151 90 256l-160 6v67h375v-67l-101 -6q-65 -137 -127 -289l-163 -422q-77 -206 -95 -256h-131q-32 102 -98 276l-149 394q-60 157 -125 297z" />
<glyph unicode="w" horiz-adv-x="1609" d="M12 973v67h453v-67l-115 -8q16 -79 72 -267l131 -426l170 486q65 185 94 282h109l254 -761l125 397q60 196 81 289l-155 8v67h373v-67l-103 -8q-55 -136 -112 -308q-156 -470 -211 -657h-121q-27 81 -78 244l-172 522l-189 -537q-21 -58 -77 -229h-121q-12 49 -66 223 l-135 443q-50 167 -104 299z" />
<glyph unicode="x" horiz-adv-x="1091" d="M-6 0v68l115 6q83 92 170 209l163 223l-135 217q-121 187 -166 244l-112 6v67h479v-67l-113 -6q59 -103 115 -191l82 -133l119 166q76 99 110 158l-129 6v67h359v-67l-107 -6q-55 -61 -147 -176l-160 -218l186 -299q104 -158 144 -200l106 -6v-68h-487v68l121 6 q-21 45 -91 157l-127 201l-120 -172q-86 -117 -131 -186l112 -6v-68h-356z" />
<glyph unicode="y" horiz-adv-x="1107" d="M8 973v67h455v-67l-111 -6q25 -87 97 -275l172 -440l170 450q12 30 33.5 86.5t31.5 81.5q27 82 31 97l-160 6v67h377v-67l-98 -6q-28 -54 -127 -285l-306 -768q-79 -201 -169 -283t-228 -82q-41 0 -108 11l28 147q58 -18 115 -18q98 0 164.5 60t118.5 198l16 43l-266 665 q-107 258 -133 312z" />
<glyph unicode="z" horiz-adv-x="1062" d="M80 0v68l635 905h-434l-21 -223h-162v290h865v-67l-633 -905h465l22 221h164v-289h-901z" />
<glyph unicode="{" horiz-adv-x="778" d="M104 575v66q57 5 84 15t50 38q28 32 36.5 69.5t8.5 121.5v307q0 206 57 275t229 69h121v-68h-72q-83 0 -107 -37.5t-24 -168.5v-347q0 -98 -8.5 -144t-32.5 -79q-23 -35 -51.5 -53.5t-77.5 -30.5q56 -14 90 -39.5t56 -70.5q24 -52 24 -197v-346q0 -131 24 -169t107 -38 h72v-67h-121q-172 0 -229 69t-57 275v307q0 92 -14 136t-52 75q-30 24 -113 32z" />
<glyph unicode="|" horiz-adv-x="589" d="M190 -440v1921h207v-1921h-207z" />
<glyph unicode="}" horiz-adv-x="778" d="M86 -252h72q83 0 107 38t24 169v346q0 98 8.5 144t32.5 79q23 35 51.5 53.5t77.5 30.5q-56 14 -90 39.5t-56 71.5q-24 52 -24 196v347q0 131 -24 168.5t-107 37.5h-72v68h121q172 0 229.5 -69t57.5 -275v-307q0 -93 13.5 -136.5t51.5 -74.5q31 -25 113 -33v-66 q-57 -5 -83.5 -15t-49.5 -38q-28 -32 -36.5 -69t-8.5 -121v-307q0 -206 -57.5 -275t-229.5 -69h-121v67z" />
<glyph unicode="~" d="M63 457q82 121 152.5 173t153.5 52q50 0 105 -21t144 -75q80 -46 115 -60t70 -14q54 0 94 30t109 122l108 -80q-79 -121 -149 -173.5t-152 -52.5q-51 0 -104.5 20t-141.5 71q-84 50 -120 64.5t-76 14.5q-51 0 -90 -30t-107 -119z" />
<glyph unicode="&#xa1;" horiz-adv-x="675" d="M205 -213q0 25 6 66q17 155 50 444t40 350h78l80 -702q8 -57 10 -92q6 -40 6 -66q0 -53 -37.5 -86t-97.5 -33t-97.5 33t-37.5 86zM209 936q0 56 36.5 92.5t92.5 36.5q57 0 93 -36.5t36 -94.5q0 -54 -37 -90.5t-92.5 -36.5t-92 36.5t-36.5 92.5z" />
<glyph unicode="&#xa2;" d="M145 899q0 241 117.5 377.5t345.5 161.5v151h88v-149q175 3 324 -58l-6 -264h-164l-19 221q-60 25 -135 25v-915q25 -5 47 -5q116 0 238 78l43 -69q-137 -99 -328 -99v-143h-88v149q-227 28 -345 165.5t-118 373.5zM365 911q0 -177 63 -292.5t180 -153.5v889 q-119 -34 -181 -147t-62 -296z" />
<glyph unicode="&#xa3;" d="M88 0v80q106 35 156 147q25 56 32 120t7 231v114h-185v78h185v164q0 152 23 235t83 146q124 127 359 127q201 0 342 -78v-299h-166l-15 256q-63 51 -153 51q-78 0 -138 -40t-88 -109q-30 -72 -30 -250v-203h325v-78h-325v-67q0 -228 -33 -329t-133 -183h756v-113h-1002z " />
<glyph unicode="&#xa4;" d="M47 272l131 129q-96 136 -96 316q0 177 96 313l-131 129l94 92l129 -127q72 55 147.5 80t172.5 25q98 0 172.5 -24.5t148.5 -80.5l127 127l95 -92l-129 -129q94 -134 94 -313q0 -182 -94 -316l129 -129l-95 -90l-127 125q-74 -56 -148.5 -80t-172.5 -24 q-97 0 -172.5 24.5t-147.5 79.5l-129 -125zM229 721q0 -180 98.5 -286.5t264.5 -106.5q161 0 259.5 107t98.5 282q0 174 -99 280.5t-261 106.5q-161 0 -261 -106.5t-100 -276.5z" />
<glyph unicode="&#xa5;" d="M-8 1350v67h522v-67l-152 -7q31 -70 117 -229l195 -373l164 355q24 50 34 73l43 86q15 30 37 88l-139 7v67h377v-67l-109 -7q-79 -136 -143 -253l-184 -377h223v-78h-252q-6 -105 -6 -123v-35h258v-78h-258v-39q0 -141 10 -288l170 -6v-66h-580v66l170 6q11 183 11 288 v39h-279v78h279v31q0 28 -6 127h-273v78h242l-211 370q-81 149 -154 260z" />
<glyph unicode="&#xa6;" horiz-adv-x="589" d="M190 0v563h207v-563h-207zM190 854v563h207v-563h-207z" />
<glyph unicode="&#xa7;" d="M207 535q0 81 38.5 145.5t141.5 157.5q-88 47 -126 109t-38 159q0 157 106 244.5t298 87.5q159 0 336 -66l-5 -256h-165l-17 207q-74 39 -149 39q-104 0 -160.5 -53.5t-56.5 -151.5q0 -81 53 -131q28 -28 64 -48t128 -58q205 -86 273.5 -149t68.5 -165 q0 -78 -36.5 -147.5t-124.5 -157.5q82 -51 119.5 -115.5t37.5 -156.5q0 -161 -113.5 -252.5t-314.5 -91.5q-176 0 -354 77l4 250h172l16 -213q85 -39 166 -39q107 0 172.5 58t65.5 153q0 88 -57.5 142t-221.5 120q-188 76 -254.5 139t-66.5 163zM369 631q0 -71 56.5 -119 t229.5 -123q109 -49 119 -53q70 94 70 172q0 68 -48 111.5t-194 107.5q-97 41 -158 74q-75 -89 -75 -170z" />
<glyph unicode="&#xa8;" horiz-adv-x="1024" d="M184 1386q0 52 35 86.5t88 34.5t87 -34.5t34 -86.5q0 -54 -34 -88t-87 -34q-54 0 -88.5 34t-34.5 88zM594 1386q0 52 35 86.5t88 34.5t87 -34.5t34 -86.5q0 -54 -34 -88t-87 -34q-54 0 -88.5 34t-34.5 88z" />
<glyph unicode="&#xa9;" horiz-adv-x="1630" d="M86 719q0 202 95 367t262 258.5t372 93.5q156 0 291.5 -55t231.5 -151t151 -231.5t55 -291.5q0 -155 -55 -290.5t-150.5 -232t-231 -151.5t-290.5 -55q-211 0 -378 94t-260 263t-93 382zM172 717q0 -193 81.5 -345.5t229 -237.5t334.5 -85q183 0 329.5 85t229 236 t82.5 339t-83 339t-230 235.5t-330 84.5q-136 0 -255.5 -49.5t-204.5 -135.5t-134 -207t-49 -259zM459 700q0 180 99 281.5t276 101.5q139 0 274 -59v-164h-123l-12 131q-63 39 -123 39q-98 0 -158.5 -92t-60.5 -244q0 -147 60.5 -234t162.5 -87q64 0 125 41l12 127h127 v-156q-141 -66 -276 -66q-177 0 -280 102t-103 279z" />
<glyph unicode="&#xaa;" horiz-adv-x="778" d="M90 993q0 127 156 168q38 11 76 14.5t137 6.5v43q0 52 -2.5 69t-12.5 35q-25 39 -77 39q-48 0 -99 -33l-8 -96h-119l-6 137q114 54 234 54q140 0 202 -62q23 -23 30 -58t7 -124v-211q0 -41 6 -55.5t23 -14.5q20 0 68 29l32 -47q-83 -58 -162 -58q-83 0 -104 68 q-53 -39 -93 -53.5t-95 -14.5q-91 0 -142 43.5t-51 120.5zM250 1010q0 -46 25 -71.5t69 -25.5q54 0 115 52v155q-110 0 -159.5 -26t-49.5 -84z" />
<glyph unicode="&#xab;" horiz-adv-x="1038" d="M86 522l377 393h80l-211 -393l205 -395h-74zM487 522l377 393h80l-211 -393l205 -395h-74z" />
<glyph unicode="&#xac;" d="M74 635v143h993v-588h-166v445h-827z" />
<glyph unicode="&#xad;" horiz-adv-x="729" d="M98 496v151h533v-151h-533z" />
<glyph unicode="&#xae;" horiz-adv-x="1220" d="M80 1022q0 223 151.5 372.5t378.5 149.5q230 0 380.5 -150t150.5 -380q0 -113 -40 -211.5t-110 -168.5t-168 -110.5t-211 -40.5q-233 0 -382.5 151.5t-149.5 387.5zM164 1020q0 -207 125.5 -339t322.5 -132q192 0 318.5 132t126.5 333t-127 333t-320 132 q-192 0 -319 -131t-127 -328zM362 735v43l70 4q4 70 4 127v207q0 41 -4 127l-70 4v45h250q119 0 174.5 -35.5t55.5 -111.5q0 -56 -30.5 -87.5t-94.5 -43.5q46 -12 69 -47t43 -123l15 -62l49 -4v-43h-152l-26 109q-23 90 -51 118.5t-91 28.5h-20v-82q0 -57 4 -127l61 -4v-43 h-256zM553 1032h22q75 0 110.5 26t35.5 83q0 102 -133 102h-35v-211z" />
<glyph unicode="&#xaf;" horiz-adv-x="1024" d="M195 1323v100h636v-100h-636z" />
<glyph unicode="&#xb0;" horiz-adv-x="698" d="M39 1141q0 130 87 213.5t222 83.5q138 0 224.5 -83.5t86.5 -217.5q0 -135 -86 -219t-223 -84q-140 0 -225.5 84.5t-85.5 222.5zM143 1139q0 -100 56 -158.5t151 -58.5q94 0 149.5 58t55.5 155q0 98 -56.5 156.5t-150.5 58.5q-92 0 -148.5 -58t-56.5 -153z" />
<glyph unicode="&#xb1;" d="M74 0v143h1030v-143h-1030zM74 612v144h438v288h154v-288h438v-144h-438v-288h-154v288h-438z" />
<glyph unicode="&#xb2;" horiz-adv-x="788" d="M100 639l2 98q117 94 157 128.5t83 80.5q154 168 154 285q0 59 -35 96t-90 37q-49 0 -117 -29l-12 -133h-131v170q158 58 290 58q128 0 195.5 -50t67.5 -145q0 -71 -33.5 -131t-118.5 -139q-108 -103 -262 -213h405l-8 -113h-547z" />
<glyph unicode="&#xb3;" horiz-adv-x="788" d="M102 674l4 170h132l8 -131q62 -23 102 -23q71 0 115.5 46.5t44.5 121.5q0 73 -51 114.5t-140 41.5q-35 0 -84 -4v65q62 -4 64 -4q94 0 148.5 44.5t54.5 119.5q0 60 -37.5 95.5t-100.5 35.5q-40 0 -92 -18l-10 -131h-131l-2 165q143 48 262 48q133 0 204 -51t71 -146 q0 -71 -40.5 -116t-125.5 -68q92 -19 135 -64.5t43 -124.5q0 -109 -82.5 -171t-228.5 -62q-132 0 -263 47z" />
<glyph unicode="&#xb4;" horiz-adv-x="1024" d="M342 1253q71 45 144.5 122.5t107.5 142.5h178q31 0 31 -17q0 -37 -107 -123q-120 -94 -327 -174z" />
<glyph unicode="&#xb5;" d="M2 965v67l367 10q-9 -187 -9 -329v-174q0 -157 8 -224.5t33 -113.5q26 -51 69.5 -79t94.5 -28q71 0 139.5 46t114.5 124v694l-149 7v67l368 10q-10 -393 -10 -432v-168q0 -208 10 -368l140 -6v-68h-351l-2 172q-120 -192 -290 -192q-58 0 -97.5 20t-77.5 70v-78 q0 -166 11 -432h-230q11 248 11 463v569q0 183 -11 366z" />
<glyph unicode="&#xb6;" horiz-adv-x="1271" d="M98 1010q0 240 176 350q54 34 114 45.5t181 11.5h627v-71l-190 -7v-1587h-166v1583h-187v-1583h-166v871q-183 0 -286 102.5t-103 284.5z" />
<glyph unicode="&#xb7;" horiz-adv-x="589" d="M160 575q0 56 38 94t95 38t95 -38.5t38 -95.5t-38 -95t-95 -38q-59 0 -96 37.5t-37 97.5z" />
<glyph unicode="&#xb8;" horiz-adv-x="1024" d="M322 -397q204 171 198 321h139q25 0 34 -6.5t9 -26.5q0 -90 -112 -190q-36 -34 -75 -60t-155 -96z" />
<glyph unicode="&#xb9;" horiz-adv-x="788" d="M127 1282q99 39 151.5 67.5t96.5 67.5h119q-7 -147 -7 -246v-286q0 -114 7 -189l116 -4v-53h-407v53l119 4q6 80 6 189v280q0 53 -2 131q-64 -33 -176 -75z" />
<glyph unicode="&#xba;" horiz-adv-x="778" d="M76 1133q0 142 81.5 219.5t231.5 77.5q151 0 232 -77.5t81 -222.5q0 -146 -81 -223.5t-232 -77.5q-152 0 -232.5 78t-80.5 226zM238 1133q0 -115 39.5 -178.5t111.5 -63.5t112 62t40 177q0 113 -40 175.5t-112 62.5t-111.5 -62t-39.5 -173z" />
<glyph unicode="&#xbb;" horiz-adv-x="1038" d="M94 915h80l377 -393l-377 -395h-74l205 395zM496 915h79l377 -393l-377 -395h-73l205 395z" />
<glyph unicode="&#xbc;" horiz-adv-x="1740" d="M117 1282q99 39 151.5 67.5t96.5 67.5h118q-6 -126 -6 -246v-286q0 -125 6 -189l117 -4v-53h-407v53l118 4q6 80 6 189v280q0 53 -2 131q-64 -33 -176 -75zM561 -41l471 1499h119l-471 -1499h-119zM985 225v84l358 469h160q-6 -108 -6 -225v-240h137v-88h-137v-37 q0 -41 4 -131l101 -2v-55h-371v55l104 2q6 46 6 131v37h-356zM1094 313h252l4 342z" />
<glyph unicode="&#xbd;" horiz-adv-x="1740" d="M117 1282q99 39 151.5 67.5t96.5 67.5h118q-6 -126 -6 -246v-286q0 -125 6 -189l117 -4v-53h-407v53l118 4q6 80 6 189v280q0 53 -2 131q-64 -33 -176 -75zM520 -41l471 1499h119l-471 -1499h-119zM1012 0l2 98q114 90 154 125.5t85 83.5q154 165 154 283 q0 58 -35.5 95.5t-89.5 37.5q-46 0 -117 -27l-12 -133h-131v170q154 58 291 58q128 0 195 -50t67 -145q0 -70 -34.5 -131t-117.5 -139q-107 -102 -262 -213h406l-8 -113h-547z" />
<glyph unicode="&#xbe;" horiz-adv-x="1740" d="M129 674l4 170h131l8 -131q62 -23 103 -23q71 0 115.5 46.5t44.5 121.5q0 73 -51 114.5t-140 41.5q-35 0 -84 -4v65q62 -4 64 -4q93 0 147.5 44.5t54.5 119.5q0 60 -37 95.5t-100 35.5q-39 0 -92 -18l-10 -131h-131l-2 165q143 48 262 48q133 0 203.5 -51t70.5 -146 q0 -71 -40.5 -116t-125.5 -68q92 -19 135 -64.5t43 -124.5q0 -109 -82.5 -171t-228.5 -62q-131 0 -262 47zM604 -41l469 1499h119l-471 -1499h-117zM975 225v84l356 469h160q-6 -120 -6 -225v-240h139v-88h-139v-37q0 -57 4 -131l102 -2v-55h-370v55l102 2q6 50 6 131v37 h-354zM1083 313h250l4 342z" />
<glyph unicode="&#xbf;" horiz-adv-x="897" d="M27 -20q0 147 118 262q32 32 58 52t129 95q89 64 109 99t20 124v45h78v-47v-55.5t-2.5 -43t-3.5 -35t-9 -28.5t-13.5 -27t-22 -27t-29 -32.5l-39.5 -39.5q-98 -98 -139 -179.5t-41 -175.5q0 -103 59.5 -167t155.5 -64q74 0 149 47l17 211h163l13 -232q-192 -94 -373 -94 t-289 84.5t-108 227.5zM371 936q0 56 36.5 92.5t92.5 36.5q57 0 93 -36.5t36 -94.5q0 -54 -37 -90.5t-92 -36.5q-56 0 -92.5 36.5t-36.5 92.5z" />
<glyph unicode="&#xc0;" horiz-adv-x="1355" d="M-12 0v68l112 6q24 45 123 293l256 684q91 236 133 366h127q16 -59 121 -330l295 -788q64 -168 92 -225l119 -6v-68h-532v68l157 6q-35 113 -67 198l-80 220h-475l-54 -144q-64 -169 -88 -276l150 -4v-68h-389zM393 1802q0 17 31 17h180q34 -65 106 -141.5t144 -123.5 l-27 -49q-206 79 -327 174q-107 86 -107 123zM397 569h420l-207 576z" />
<glyph unicode="&#xc1;" horiz-adv-x="1355" d="M-12 0v68l112 6q24 45 123 293l256 684q91 236 133 366h127q16 -59 121 -330l295 -788q64 -168 92 -225l119 -6v-68h-532v68l157 6q-35 113 -67 198l-80 220h-475l-54 -144q-64 -169 -88 -276l150 -4v-68h-389zM397 569h420l-207 576zM520 1554q71 45 144.5 122.5 t107.5 142.5h178q31 0 31 -17q0 -37 -107 -123q-120 -94 -327 -174z" />
<glyph unicode="&#xc2;" horiz-adv-x="1355" d="M-12 0v68l112 6q24 45 123 293l256 684q91 236 133 366h127q16 -59 121 -330l295 -788q64 -168 92 -225l119 -6v-68h-532v68l157 6q-35 113 -67 198l-80 220h-475l-54 -144q-64 -169 -88 -276l150 -4v-68h-389zM348 1563q106 70 217 256h211q111 -186 217 -256l-35 -54 q-108 50 -175.5 94.5t-112.5 96.5q-83 -99 -287 -191zM397 569h420l-207 576z" />
<glyph unicode="&#xc3;" horiz-adv-x="1355" d="M-12 0v68l112 6q24 45 123 293l256 684q91 236 133 366h127q16 -59 121 -330l295 -788q64 -168 92 -225l119 -6v-68h-532v68l157 6q-35 113 -67 198l-80 220h-475l-54 -144q-64 -169 -88 -276l150 -4v-68h-389zM328 1542q50 225 196 225q63 0 181 -38q108 -33 155 -33 q93 0 105 82h65q-14 -119 -62 -174.5t-137 -55.5q-58 0 -176 35q-118 37 -170 37q-69 0 -90 -78h-67zM397 569h420l-207 576z" />
<glyph unicode="&#xc4;" horiz-adv-x="1355" d="M-12 0v68l112 6q24 45 123 293l256 684q91 236 133 366h127q16 -59 121 -330l295 -788q64 -168 92 -225l119 -6v-68h-532v68l157 6q-35 113 -67 198l-80 220h-475l-54 -144q-64 -169 -88 -276l150 -4v-68h-389zM346 1663q0 52 35 86.5t88 34.5t87 -34t34 -87 q0 -54 -34 -88.5t-87 -34.5q-54 0 -88.5 34.5t-34.5 88.5zM397 569h420l-207 576zM756 1663q0 52 35 86.5t88 34.5q52 0 86 -34t34 -87q0 -54 -33.5 -88.5t-86.5 -34.5q-54 0 -88.5 34.5t-34.5 88.5z" />
<glyph unicode="&#xc5;" horiz-adv-x="1355" d="M-12 0v68l112 6q24 45 123 293l256 684q105 277 131 360q-64 19 -102.5 72.5t-38.5 122.5q0 88 59 146t148 58q91 0 150 -58t59 -146q0 -70 -39.5 -124t-104.5 -71q32 -109 119 -324l295 -788q36 -99 92 -225l119 -6v-68h-532v68l157 6q-35 113 -67 198l-80 220h-475 l-54 -144q-64 -169 -88 -276l150 -4v-68h-389zM397 569h420l-207 576zM561 1608q0 -59 31.5 -94t85.5 -35q51 0 83 35t32 92t-32 92t-85 35q-51 0 -83 -35t-32 -90z" />
<glyph unicode="&#xc6;" horiz-adv-x="1855" d="M-139 0v68l139 6q56 74 81.5 110.5t92.5 141.5l682 1091h877v-368h-164l-23 290h-420v-579h459v-82h-459v-238q0 -236 7 -362h446l25 291h165v-369h-1038v68l170 6q6 177 6 286v93h-553l-98 -164q-49 -75 -74 -119q-4 -8 -18 -33t-21 -39q-2 -3 -7.5 -12t-8.5 -12l145 -6 v-68h-411zM406 532h501v809z" />
<glyph unicode="&#xc7;" horiz-adv-x="1353" d="M125 696q0 371 203 574q165 168 450 168q118 0 223 -23.5t228 -77.5v-288h-166l-21 231q-121 78 -251 78q-201 0 -315 -176t-114 -486q0 -302 116 -469.5t327 -167.5q122 0 256 70l18 242h168v-303q-142 -50 -243 -70.5t-207 -20.5q-315 0 -493.5 191t-178.5 528z M487 -397q205 172 199 321h139q25 0 34 -6.5t9 -26.5q0 -90 -112 -190q-36 -34 -75 -60t-155 -96z" />
<glyph unicode="&#xc8;" horiz-adv-x="1200" d="M59 0v68l168 6q11 139 11 366v535q0 229 -11 368l-168 7v67h1018v-368h-164l-24 290h-422q-10 -127 -10 -364v-215h471v-82h-471v-238q0 -239 10 -362h455l24 291h168v-369h-1055zM350 1802q0 17 31 17h180q34 -65 106 -141.5t144 -123.5l-27 -49q-206 79 -327 174 q-107 86 -107 123z" />
<glyph unicode="&#xc9;" horiz-adv-x="1200" d="M59 0v68l168 6q11 139 11 366v535q0 229 -11 368l-168 7v67h1018v-368h-164l-24 290h-422q-10 -127 -10 -364v-215h471v-82h-471v-238q0 -239 10 -362h455l24 291h168v-369h-1055zM459 1554q71 45 144.5 122.5t107.5 142.5h178q31 0 31 -17q0 -37 -107 -123 q-119 -94 -328 -174z" />
<glyph unicode="&#xca;" horiz-adv-x="1200" d="M59 0v68l168 6q11 139 11 366v535q0 229 -11 368l-168 7v67h1018v-368h-164l-24 290h-422q-10 -127 -10 -364v-215h471v-82h-471v-238q0 -239 10 -362h455l24 291h168v-369h-1055zM276 1563q107 71 218 256h211q111 -186 217 -256l-35 -54q-108 50 -176 94.5t-113 96.5 q-83 -99 -287 -191z" />
<glyph unicode="&#xcb;" horiz-adv-x="1200" d="M59 0v68l168 6q11 139 11 366v535q0 229 -11 368l-168 7v67h1018v-368h-164l-24 290h-422q-10 -127 -10 -364v-215h471v-82h-471v-238q0 -239 10 -362h455l24 291h168v-369h-1055zM272 1663q0 52 35 86.5t88 34.5t87 -34t34 -87q0 -54 -34 -88.5t-87 -34.5 q-54 0 -88.5 34.5t-34.5 88.5zM682 1663q0 52 35 86.5t88 34.5t87 -34t34 -87q0 -54 -34 -88.5t-87 -34.5q-54 0 -88.5 34.5t-34.5 88.5z" />
<glyph unicode="&#xcc;" horiz-adv-x="718" d="M72 0v68l168 6q10 130 10 368v533q0 238 -10 368l-168 7v67h573v-67l-166 -7q-10 -133 -10 -368v-533q0 -235 10 -368l166 -6v-68h-573zM109 1802q0 17 30 17h180q34 -65 106 -141.5t144 -123.5l-26 -49q-208 80 -328 174q-106 85 -106 123z" />
<glyph unicode="&#xcd;" horiz-adv-x="718" d="M72 0v68l168 6q10 130 10 368v533q0 238 -10 368l-168 7v67h573v-67l-166 -7q-10 -133 -10 -368v-533q0 -235 10 -368l166 -6v-68h-573zM207 1554q71 45 144.5 122.5t107.5 142.5h178q31 0 31 -17q0 -37 -107 -123q-119 -94 -328 -174z" />
<glyph unicode="&#xce;" horiz-adv-x="718" d="M37 1563q106 70 217 256h211q111 -186 217 -256l-35 -54q-108 50 -176 94.5t-113 96.5q-84 -100 -286 -191zM72 0v68l168 6q10 130 10 368v533q0 238 -10 368l-168 7v67h575v-67l-168 -7q-10 -130 -10 -368v-533q0 -238 10 -368l168 -6v-68h-575z" />
<glyph unicode="&#xcf;" horiz-adv-x="718" d="M31 1663q0 52 35 86.5t88 34.5q52 0 86 -34t34 -87q0 -54 -33.5 -88.5t-86.5 -34.5q-54 0 -88.5 34.5t-34.5 88.5zM72 0v68l168 6q10 130 10 368v533q0 238 -10 368l-168 7v67h573v-67l-166 -7q-10 -133 -10 -368v-533q0 -235 10 -368l166 -6v-68h-573zM440 1663 q0 52 35 86.5t88 34.5t87 -34t34 -87q0 -54 -34 -88.5t-87 -34.5q-54 0 -88.5 34.5t-34.5 88.5z" />
<glyph unicode="&#xd0;" horiz-adv-x="1458" d="M31 678v78h207v219q0 221 -11 368l-166 7v67h449q241 0 372 -33t228 -118q205 -178 205 -549q0 -394 -246 -584q-93 -73 -215 -103t-322 -30h-471v68l166 6q11 147 11 368v236h-207zM457 440q0 -205 10 -362h82q274 0 403 153t129 476q0 324 -122.5 478t-380.5 154h-111 q-10 -160 -10 -362v-221h284v-78h-284v-238z" />
<glyph unicode="&#xd1;" horiz-adv-x="1517" d="M57 0v68l162 6q10 120 10 491v778l-172 7v67h418q38 -72 189 -291l526 -802v651q0 245 -10 368l-162 7v67h440v-67l-162 -7q-10 -120 -10 -368v-975h-156q-2 4 -7 14.5t-7 13.5t-6.5 11.5t-6.5 12.5t-7.5 12.5t-10 15.5t-11.5 18t-15 23l-18 27t-23 34q-6 10 -60 88 l-632 961v-672q0 -315 10 -485l162 -6v-68h-441zM455 1542q49 225 196 225q62 0 180 -38q108 -33 156 -33q93 0 105 82h65q-14 -119 -62 -174.5t-137 -55.5q-58 0 -176 35q-118 37 -170 37q-69 0 -90 -78h-67z" />
<glyph unicode="&#xd2;" horiz-adv-x="1556" d="M125 717q0 165 55 313t150 242q175 166 448 166q323 0 498 -224q156 -201 156 -505q0 -173 -53.5 -319t-153.5 -243q-167 -167 -447 -167q-320 0 -497 223q-156 200 -156 514zM358 715q0 -318 109.5 -492t310.5 -174q199 0 309.5 173.5t110.5 486.5t-110 486t-310 173 q-198 0 -309 -172t-111 -481zM528 1802q0 17 31 17h180q34 -65 106 -141.5t144 -123.5l-26 -49q-208 80 -328 174q-107 86 -107 123z" />
<glyph unicode="&#xd3;" horiz-adv-x="1556" d="M125 717q0 165 55 313t150 242q175 166 448 166q323 0 498 -224q156 -201 156 -505q0 -173 -53.5 -319t-153.5 -243q-167 -167 -447 -167q-320 0 -497 223q-156 200 -156 514zM358 715q0 -318 109.5 -492t310.5 -174q199 0 309.5 173.5t110.5 486.5t-110 486t-310 173 q-198 0 -309 -172t-111 -481zM602 1554q71 45 144.5 122.5t107.5 142.5h178q31 0 31 -17q0 -37 -107 -123q-120 -94 -327 -174z" />
<glyph unicode="&#xd4;" horiz-adv-x="1556" d="M125 717q0 165 55 313t150 242q175 166 448 166q323 0 498 -224q156 -201 156 -505q0 -173 -53.5 -319t-153.5 -243q-167 -167 -447 -167q-320 0 -497 223q-156 200 -156 514zM358 715q0 -318 109.5 -492t310.5 -174q199 0 309.5 173.5t110.5 486.5t-110 486t-310 173 q-198 0 -309 -172t-111 -481zM457 1563q106 70 217 256h211q111 -186 217 -256l-35 -54q-108 50 -176 94.5t-113 96.5q-84 -100 -286 -191z" />
<glyph unicode="&#xd5;" horiz-adv-x="1556" d="M125 717q0 165 55 313t150 242q175 166 448 166q323 0 498 -224q156 -201 156 -505q0 -173 -53.5 -319t-153.5 -243q-167 -167 -447 -167q-320 0 -497 223q-156 200 -156 514zM358 715q0 -318 109.5 -492t310.5 -174q199 0 309.5 173.5t110.5 486.5t-110 486t-310 173 q-198 0 -309 -172t-111 -481zM451 1542q49 225 196 225q62 0 180 -38q108 -33 156 -33q92 0 104 82h66q-14 -119 -62 -174.5t-137 -55.5q-58 0 -176 35q-118 37 -170 37q-69 0 -90 -78h-67z" />
<glyph unicode="&#xd6;" horiz-adv-x="1556" d="M125 717q0 165 55 313t150 242q175 166 448 166q323 0 498 -224q156 -201 156 -505q0 -173 -53.5 -319t-153.5 -243q-167 -167 -447 -167q-320 0 -497 223q-156 200 -156 514zM358 715q0 -318 109.5 -492t310.5 -174q199 0 309.5 173.5t110.5 486.5t-110 486t-310 173 q-198 0 -309 -172t-111 -481zM451 1663q0 52 34.5 86.5t87.5 34.5t87 -34t34 -87q0 -54 -34 -88.5t-87 -34.5q-54 0 -88 34.5t-34 88.5zM860 1663q0 52 35 86.5t88 34.5t87 -34t34 -87q0 -54 -34 -88.5t-87 -34.5q-54 0 -88.5 34.5t-34.5 88.5z" />
<glyph unicode="&#xd7;" d="M143 176l340 344l-340 342l107 103l340 -342l342 342l106 -103l-342 -342l340 -344l-106 -102l-340 344l-340 -344z" />
<glyph unicode="&#xd8;" horiz-adv-x="1556" d="M125 709q0 329 178 529t471 200q244 0 420 -142l125 152l70 -59l-129 -158q92 -120 132 -241t40 -281q0 -330 -178.5 -529.5t-473.5 -199.5q-249 0 -418 141l-122 -152l-72 58l129 159q-89 110 -130.5 236t-41.5 287zM356 707q0 -221 60 -381l684 856q-61 96 -139 141 t-183 45q-198 0 -310 -174.5t-112 -486.5zM459 236q60 -96 137.5 -141.5t181.5 -45.5q198 0 310 175t112 485q0 224 -57 381z" />
<glyph unicode="&#xd9;" horiz-adv-x="1495" d="M57 1350v67h574v-67l-166 -7q-10 -137 -10 -368v-410q0 -141 6.5 -208.5t25.5 -120.5q31 -83 111.5 -129t194.5 -46q115 0 199 45t128 130q28 54 38.5 132.5t10.5 231.5v375q0 198 -10 368l-162 7v67h441v-67l-162 -7q-10 -127 -10 -368v-404q0 -169 -16 -252.5 t-62 -154.5q-121 -184 -418 -184q-331 0 -459 184q-46 67 -60.5 154t-14.5 284v373q0 229 -11 368zM483 1802q0 17 31 17h180q34 -65 106 -141.5t144 -123.5l-26 -49q-208 80 -328 174q-107 86 -107 123z" />
<glyph unicode="&#xda;" horiz-adv-x="1495" d="M57 1350v67h574v-67l-166 -7q-10 -137 -10 -368v-410q0 -141 6.5 -208.5t25.5 -120.5q31 -83 111.5 -129t194.5 -46q115 0 199 45t128 130q28 54 38.5 132.5t10.5 231.5v375q0 198 -10 368l-162 7v67h441v-67l-162 -7q-10 -127 -10 -368v-404q0 -169 -16 -252.5 t-62 -154.5q-121 -184 -418 -184q-331 0 -459 184q-46 67 -60.5 154t-14.5 284v373q0 229 -11 368zM690 1554q71 45 144.5 122.5t107.5 142.5h178q31 0 31 -17q0 -37 -107 -123q-120 -94 -327 -174z" />
<glyph unicode="&#xdb;" horiz-adv-x="1495" d="M57 1350v67h574v-67l-166 -7q-10 -137 -10 -368v-410q0 -141 6.5 -208.5t25.5 -120.5q31 -83 111.5 -129t194.5 -46q115 0 199 45t128 130q28 54 38.5 132.5t10.5 231.5v375q0 198 -10 368l-162 7v67h441v-67l-162 -7q-10 -127 -10 -368v-404q0 -169 -16 -252.5 t-62 -154.5q-121 -184 -418 -184q-331 0 -459 184q-46 67 -60.5 154t-14.5 284v373q0 229 -11 368zM500 1563q106 70 217 256h211q111 -186 217 -256l-35 -54q-108 50 -176 94.5t-113 96.5q-84 -100 -286 -191z" />
<glyph unicode="&#xdc;" horiz-adv-x="1495" d="M57 1350v67h574v-67l-166 -7q-10 -137 -10 -368v-410q0 -141 6.5 -208.5t25.5 -120.5q31 -83 111.5 -129t194.5 -46q115 0 199 45t128 130q28 54 38.5 132.5t10.5 231.5v375q0 198 -10 368l-162 7v67h441v-67l-162 -7q-10 -127 -10 -368v-404q0 -169 -16 -252.5 t-62 -154.5q-121 -184 -418 -184q-331 0 -459 184q-46 67 -60.5 154t-14.5 284v373q0 229 -11 368zM485 1663q0 52 35 86.5t88 34.5q52 0 86.5 -34t34.5 -87q0 -54 -34 -88.5t-87 -34.5q-54 0 -88.5 34.5t-34.5 88.5zM895 1663q0 52 35 86.5t88 34.5q52 0 86.5 -34t34.5 -87 q0 -54 -34 -88.5t-87 -34.5q-54 0 -88.5 34.5t-34.5 88.5z" />
<glyph unicode="&#xdd;" horiz-adv-x="1228" d="M-35 1350v67h524v-67l-147 -7q32 -66 160 -276l198 -326l179 340q108 198 133 262l-144 7v67h383v-67l-114 -7q-68 -98 -162 -270l-223 -422q-7 -86 -7 -200v-91q0 -150 9 -288l172 -6v-66h-580v66l174 6q6 210 6 288v91q0 96 -6 204l-307 484q-91 141 -139 204z M582 1554q71 45 144.5 122.5t107.5 142.5h178q30 0 30 -17q0 -38 -106 -123q-119 -94 -328 -174z" />
<glyph unicode="&#xde;" horiz-adv-x="1220" d="M59 0v68l168 6q11 187 11 370v529q0 183 -11 370l-168 7v67h574v-67l-168 -7q-6 -94 -8 -208h141q157 0 236.5 -16t142.5 -60q147 -104 147 -322q0 -209 -139 -309q-67 -49 -156 -68.5t-241 -19.5h-131q2 -176 8 -266l172 -6v-68h-578zM457 418h73q96 0 152 12.5 t100 44.5q109 83 109 266q0 161 -80 239.5t-246 78.5h-108v-641z" />
<glyph unicode="&#xdf;" horiz-adv-x="1263" d="M49 0v68l146 6q10 130 10 407v523q0 162 17.5 240t68.5 138q113 138 340 138q198 0 317 -103.5t119 -275.5q0 -138 -76 -220.5t-231 -113.5q97 -9 153 -27.5t105 -58.5q131 -110 131 -309t-114.5 -314.5t-311.5 -115.5q-108 0 -197 41l27 69q50 -22 73.5 -28.5t55.5 -6.5 q117 0 181.5 92.5t64.5 258.5q0 195 -92 284q-71 68 -238 68h-25v71h21q256 0 256 318q0 140 -60 221.5t-163 81.5q-69 0 -117.5 -39t-71.5 -113q-24 -76 -24 -264v-674q0 -251 6 -362h-371z" />
<glyph unicode="&#xe0;" horiz-adv-x="1120" d="M104 266q0 126 81.5 208t232.5 108q123 20 293 20v96q0 103 -5 142t-22 71q-45 82 -143 82q-102 0 -172 -86l-17 -180h-164l-6 242q173 92 365 92q219 0 313 -111q37 -43 48.5 -105.5t11.5 -219.5v-385q0 -88 10 -117q16 -39 61 -39q44 0 109 43l37 -55 q-120 -92 -244 -92q-75 0 -116 34.5t-56 110.5q-72 -75 -148.5 -110t-171.5 -35q-134 0 -215.5 78t-81.5 208zM299 1501q0 17 31 17h180q34 -65 106 -141.5t144 -123.5l-27 -49q-206 79 -327 174q-107 86 -107 123zM315 305q0 -88 53.5 -144.5t135.5 -56.5q106 0 207 93v335 q-212 -1 -304 -54t-92 -173z" />
<glyph unicode="&#xe1;" horiz-adv-x="1120" d="M104 266q0 126 81.5 208t232.5 108q123 20 293 20v96q0 103 -5 142t-22 71q-45 82 -143 82q-102 0 -172 -86l-17 -180h-164l-6 242q173 92 365 92q219 0 313 -111q37 -43 48.5 -105.5t11.5 -219.5v-385q0 -88 10 -117q16 -39 61 -39q44 0 109 43l37 -55 q-120 -92 -244 -92q-75 0 -116 34.5t-56 110.5q-72 -75 -148.5 -110t-171.5 -35q-134 0 -215.5 78t-81.5 208zM315 305q0 -88 53.5 -144.5t135.5 -56.5q106 0 207 93v335q-212 -1 -304 -54t-92 -173zM389 1253q71 45 144.5 122.5t107.5 142.5h178q31 0 31 -17 q0 -37 -107 -123q-120 -94 -327 -174z" />
<glyph unicode="&#xe2;" horiz-adv-x="1120" d="M104 266q0 126 81.5 208t232.5 108q123 20 293 20v96q0 103 -5 142t-22 71q-45 82 -143 82q-102 0 -172 -86l-17 -180h-164l-6 242q173 92 365 92q219 0 313 -111q37 -43 48.5 -105.5t11.5 -219.5v-385q0 -88 10 -117q16 -39 61 -39q44 0 109 43l37 -55 q-120 -92 -244 -92q-75 0 -116 34.5t-56 110.5q-72 -75 -148.5 -110t-171.5 -35q-134 0 -215.5 78t-81.5 208zM238 1262q106 70 217 256h211q111 -186 217 -256l-35 -54q-108 50 -176 94.5t-113 96.5q-83 -99 -287 -191zM315 305q0 -88 53.5 -144.5t135.5 -56.5 q106 0 207 93v335q-212 -1 -304 -54t-92 -173z" />
<glyph unicode="&#xe3;" horiz-adv-x="1120" d="M104 266q0 126 81.5 208t232.5 108q123 20 293 20v96q0 103 -5 142t-22 71q-45 82 -143 82q-102 0 -172 -86l-17 -180h-164l-6 242q173 92 365 92q219 0 313 -111q37 -43 48.5 -105.5t11.5 -219.5v-385q0 -88 10 -117q16 -39 61 -39q44 0 109 43l37 -55 q-120 -92 -244 -92q-75 0 -116 34.5t-56 110.5q-72 -75 -148.5 -110t-171.5 -35q-134 0 -215.5 78t-81.5 208zM209 1266q49 225 197 225q59 0 180 -39q108 -33 155 -33q93 0 105 82h65q-14 -119 -61.5 -174t-136.5 -55q-58 0 -176 35q-115 36 -170 36q-71 0 -91 -77h-67z M315 305q0 -88 53.5 -144.5t135.5 -56.5q106 0 207 93v335q-212 -1 -304 -54t-92 -173z" />
<glyph unicode="&#xe4;" horiz-adv-x="1120" d="M104 266q0 126 81.5 208t232.5 108q123 20 293 20v96q0 103 -5 142t-22 71q-45 82 -143 82q-102 0 -172 -86l-17 -180h-164l-6 242q173 92 365 92q219 0 313 -111q37 -43 48.5 -105.5t11.5 -219.5v-385q0 -88 10 -117q16 -39 61 -39q44 0 109 43l37 -55 q-120 -92 -244 -92q-75 0 -116 34.5t-56 110.5q-72 -75 -148.5 -110t-171.5 -35q-134 0 -215.5 78t-81.5 208zM231 1386q0 52 35 86.5t88 34.5q52 0 86.5 -34.5t34.5 -86.5q0 -54 -34 -88t-87 -34q-54 0 -88.5 34t-34.5 88zM315 305q0 -88 53.5 -144.5t135.5 -56.5 q106 0 207 93v335q-212 -1 -304 -54t-92 -173zM641 1386q0 52 35 86.5t88 34.5q52 0 86.5 -34.5t34.5 -86.5q0 -54 -34 -88t-87 -34q-54 0 -88.5 34t-34.5 88z" />
<glyph unicode="&#xe5;" horiz-adv-x="1120" d="M104 266q0 126 81.5 208t232.5 108q123 20 293 20v96q0 103 -5 142t-22 71q-45 82 -143 82q-102 0 -172 -86l-17 -180h-164l-6 242q173 92 365 92q219 0 313 -111q37 -43 48.5 -105.5t11.5 -219.5v-385q0 -88 10 -117q16 -39 61 -39q44 0 109 43l37 -55 q-120 -92 -244 -92q-75 0 -116 34.5t-56 110.5q-72 -75 -148.5 -110t-171.5 -35q-134 0 -215.5 78t-81.5 208zM315 305q0 -88 53.5 -144.5t135.5 -56.5q106 0 207 93v335q-212 -1 -304 -54t-92 -173zM352 1368q0 86 60 144.5t149 58.5t148 -58t59 -147t-59 -147t-148 -58 q-92 0 -150.5 58t-58.5 149zM444 1368q0 -60 31.5 -94.5t85.5 -34.5q51 0 83 35t32 92t-32 92t-85 35q-51 0 -83 -35t-32 -90z" />
<glyph unicode="&#xe6;" horiz-adv-x="1689" d="M104 266q0 114 70.5 192.5t202.5 112.5q115 28 348 31v96q0 105 -5 143t-24 70q-45 82 -149 82t-180 -86l-17 -180h-162l-8 242q179 92 371 92q214 0 301 -115q124 115 309 115q135 0 232 -55t141 -156q28 -65 40 -136.5t13 -185.5h-651q1 -97 8.5 -148t26.5 -106 q75 -206 272 -206q142 0 262 102l51 -57q-78 -71 -163 -102t-199 -31q-294 0 -418 210q-76 -113 -161 -161.5t-203 -48.5q-140 0 -224 78t-84 208zM315 303q0 -88 53 -143.5t136 -55.5q55 0 105 27t81 72q35 55 35 151v178q-215 -1 -312.5 -55.5t-97.5 -173.5zM936 598h432 q-3 205 -53 300t-154 95q-106 0 -164 -101.5t-61 -293.5z" />
<glyph unicode="&#xe7;" horiz-adv-x="993" d="M111 522q0 258 128.5 398.5t364.5 140.5q168 0 316 -57l-7 -265h-163l-19 222q-51 30 -115 30q-132 0 -207 -122t-75 -337q0 -221 83 -343.5t234 -122.5q63 0 116 21.5t110 70.5l51 -58q-123 -120 -324 -120q-235 0 -364 141.5t-129 400.5zM307 -397q205 172 199 321h139 q25 0 34 -6.5t9 -26.5q0 -89 -113 -190q-37 -34 -76.5 -60.5t-152.5 -95.5z" />
<glyph unicode="&#xe8;" horiz-adv-x="1110" d="M111 528q0 252 120.5 392.5t337.5 140.5q150 0 250.5 -62t143.5 -182q23 -59 32.5 -122.5t12.5 -168.5h-676q3 -99 11 -149t28 -103q77 -206 288 -206q148 0 265 102l51 -57q-78 -70 -164 -101.5t-199 -31.5q-241 0 -371 142t-130 406zM305 1501q0 17 31 17h180 q34 -65 106 -141.5t144 -123.5l-27 -49q-206 79 -327 174q-107 86 -107 123zM332 596h454q-4 211 -55.5 304t-161.5 93t-171.5 -102t-65.5 -295z" />
<glyph unicode="&#xe9;" horiz-adv-x="1110" d="M111 528q0 252 120.5 392.5t337.5 140.5q150 0 250.5 -62t143.5 -182q23 -59 32.5 -122.5t12.5 -168.5h-676q3 -99 11 -149t28 -103q77 -206 288 -206q148 0 265 102l51 -57q-78 -70 -164 -101.5t-199 -31.5q-241 0 -371 142t-130 406zM332 596h454q-4 211 -55.5 304 t-161.5 93t-171.5 -102t-65.5 -295zM422 1253q71 45 144.5 122.5t107.5 142.5h178q31 0 31 -17q0 -37 -107 -123q-120 -94 -327 -174z" />
<glyph unicode="&#xea;" horiz-adv-x="1110" d="M111 528q0 252 120.5 392.5t337.5 140.5q150 0 250.5 -62t143.5 -182q23 -59 32.5 -122.5t12.5 -168.5h-676q3 -99 11 -149t28 -103q77 -206 288 -206q148 0 265 102l51 -57q-78 -70 -164 -101.5t-199 -31.5q-241 0 -371 142t-130 406zM248 1262q106 70 217 256h211 q111 -186 217 -256l-35 -54q-108 50 -176 94.5t-113 96.5q-84 -100 -286 -191zM332 596h454q-4 211 -55.5 304t-161.5 93t-171.5 -102t-65.5 -295z" />
<glyph unicode="&#xeb;" horiz-adv-x="1110" d="M111 528q0 252 120.5 392.5t337.5 140.5q150 0 250.5 -62t143.5 -182q23 -59 32.5 -122.5t12.5 -168.5h-676q3 -99 11 -149t28 -103q77 -206 288 -206q148 0 265 102l51 -57q-78 -70 -164 -101.5t-199 -31.5q-241 0 -371 142t-130 406zM244 1386q0 52 35 86.5t88 34.5 q52 0 86 -34t34 -87q0 -54 -33.5 -88t-86.5 -34q-54 0 -88.5 34t-34.5 88zM332 596h454q-4 211 -55.5 304t-161.5 93t-171.5 -102t-65.5 -295zM653 1386q0 52 35 86.5t88 34.5q52 0 86.5 -34.5t34.5 -86.5q0 -54 -34 -88t-87 -34q-54 0 -88.5 34t-34.5 88z" />
<glyph unicode="&#xec;" horiz-adv-x="659" d="M68 1501q0 17 30 17h181q34 -65 105.5 -141.5t143.5 -123.5l-26 -49q-208 80 -328 174q-106 85 -106 123zM70 0v68l145 6q10 150 10 368v156q0 219 -10 369l-143 6v67l372 11q-10 -242 -10 -435v-174q0 -215 10 -368l146 -6v-68h-520z" />
<glyph unicode="&#xed;" horiz-adv-x="659" d="M72 0v68l145 6q10 150 10 368v156q0 219 -10 369l-143 6v67l372 11q-10 -242 -10 -435v-174q0 -215 10 -368l146 -6v-68h-520zM160 1253q71 45 144.5 122.5t107.5 142.5h178q31 0 31 -17q0 -37 -107 -123q-119 -94 -328 -174z" />
<glyph unicode="&#xee;" horiz-adv-x="659" d="M2 1262q106 70 217 256h211q111 -186 217 -256l-35 -54q-108 50 -175.5 94.5t-112.5 96.5q-83 -99 -287 -191zM72 0v68l145 6q10 150 10 368v156q0 219 -10 369l-143 6v67l372 11q-10 -215 -10 -435v-174q0 -215 10 -368l146 -6v-68h-520z" />
<glyph unicode="&#xef;" horiz-adv-x="659" d="M-4 1386q0 52 35 86.5t88 34.5t87 -34.5t34 -86.5q0 -54 -34 -88t-87 -34q-54 0 -88.5 34t-34.5 88zM72 0v68l145 6q10 150 10 368v156q0 212 -10 369l-143 6v67l372 11q-10 -242 -10 -435v-174q0 -221 10 -368l146 -6v-68h-520zM406 1386q0 52 34.5 86.5t87.5 34.5 q52 0 86.5 -34.5t34.5 -86.5q0 -54 -34 -88t-87 -34q-54 0 -88 34t-34 88z" />
<glyph unicode="&#xf0;" horiz-adv-x="1169" d="M111 485q0 232 119 368t321 136q70 0 121 -15t104 -50q-52 162 -180 307l-297 -137l-37 77l268 123q-67 57 -126.5 88t-157.5 60l20 71q113 -25 195.5 -62.5t175.5 -107.5l278 130l37 -78l-243 -115q168 -159 260 -362t92 -414q0 -249 -126 -386.5t-353 -137.5 q-217 0 -344 136.5t-127 368.5zM332 494q0 -207 61 -320q70 -127 191 -127q120 0 189 115t69 313q0 212 -67 326t-191 114q-122 0 -187 -108.5t-65 -312.5z" />
<glyph unicode="&#xf1;" horiz-adv-x="1318" d="M72 0v68l145 6q10 98 10 368v156q0 185 -12 369l-141 6v67l352 11l6 -189q89 107 173.5 153t191.5 46q97 0 168.5 -44t105.5 -124q20 -47 26.5 -110.5t6.5 -209.5v-131q0 -218 10 -368l146 -6v-68h-515v68l140 6q10 110 10 368v148q0 182 -29 256q-42 96 -151 96 q-144 0 -279 -184v-316q0 -210 10 -368l140 -6v-68h-514zM309 1266q49 225 197 225q59 0 180 -39q108 -33 156 -33q92 0 104 82h66q-13 -118 -61.5 -173.5t-137.5 -55.5q-58 0 -176 35q-115 36 -170 36q-70 0 -90 -77h-68z" />
<glyph unicode="&#xf2;" horiz-adv-x="1212" d="M111 526q0 254 130 394.5t365 140.5q236 0 366 -141.5t130 -399.5t-130 -399t-366 -141q-239 0 -367 141.5t-128 404.5zM334 524q0 -233 69.5 -355t202.5 -122q132 0 202.5 121.5t70.5 351.5t-70.5 351.5t-202.5 121.5t-202 -121t-70 -348zM346 1501q0 17 31 17h180 q34 -65 106 -141.5t144 -123.5l-27 -49q-206 79 -327 174q-107 86 -107 123z" />
<glyph unicode="&#xf3;" horiz-adv-x="1212" d="M111 526q0 254 130 394.5t365 140.5q236 0 366 -141.5t130 -399.5t-130 -399t-366 -141q-239 0 -367 141.5t-128 404.5zM334 524q0 -233 69.5 -355t202.5 -122q132 0 202.5 121.5t70.5 351.5t-70.5 351.5t-202.5 121.5t-202 -121t-70 -348zM444 1253q71 45 144.5 122.5 t107.5 142.5h178q31 0 31 -17q0 -38 -106 -123q-119 -94 -328 -174z" />
<glyph unicode="&#xf4;" horiz-adv-x="1212" d="M111 526q0 254 130 394.5t365 140.5q236 0 366 -141.5t130 -399.5t-130 -399t-366 -141q-239 0 -367 141.5t-128 404.5zM283 1262q106 70 217 256h211q111 -186 217 -256l-35 -54q-108 50 -176 94.5t-113 96.5q-83 -99 -287 -191zM334 524q0 -233 69.5 -355t202.5 -122 q132 0 202.5 121.5t70.5 351.5t-70.5 351.5t-202.5 121.5t-202 -121t-70 -348z" />
<glyph unicode="&#xf5;" horiz-adv-x="1212" d="M111 526q0 254 130 394.5t365 140.5q236 0 366 -141.5t130 -399.5t-130 -399t-366 -141q-239 0 -367 141.5t-128 404.5zM260 1266q50 225 197 225q59 0 180 -39q108 -33 156 -33q92 0 104 82h66q-13 -118 -61.5 -173.5t-137.5 -55.5q-58 0 -176 35q-115 36 -170 36 q-70 0 -90 -77h-68zM334 524q0 -233 69.5 -355t202.5 -122q132 0 202.5 121.5t70.5 351.5t-70.5 351.5t-202.5 121.5t-202 -121t-70 -348z" />
<glyph unicode="&#xf6;" horiz-adv-x="1212" d="M111 526q0 254 130 394.5t365 140.5q236 0 366 -141.5t130 -399.5t-130 -399t-366 -141q-239 0 -367 141.5t-128 404.5zM279 1386q0 52 34.5 86.5t87.5 34.5t87 -34.5t34 -86.5q0 -54 -34 -88t-87 -34q-54 0 -88 34t-34 88zM334 524q0 -233 69.5 -355t202.5 -122 q132 0 202.5 121.5t70.5 351.5t-70.5 351.5t-202.5 121.5t-202 -121t-70 -348zM688 1386q0 52 35 86.5t88 34.5t87 -34.5t34 -86.5q0 -54 -34 -88t-87 -34q-54 0 -88.5 34t-34.5 88z" />
<glyph unicode="&#xf7;" d="M74 449v143h1030v-143h-1030zM463 182q0 54 36 89.5t91 35.5q54 0 89.5 -35.5t35.5 -89.5q0 -55 -35.5 -91t-89.5 -36q-56 0 -91.5 35.5t-35.5 91.5zM463 864q0 54 36 89.5t91 35.5q54 0 89.5 -35.5t35.5 -89.5q0 -55 -35.5 -91t-89.5 -36q-56 0 -91.5 35.5t-35.5 91.5z " />
<glyph unicode="&#xf8;" horiz-adv-x="1212" d="M92 23l121 135q-102 131 -102 364q0 256 129 397.5t362 141.5q105 0 183 -26t147 -83l110 121l66 -55l-117 -129q60 -85 84.5 -169t24.5 -204q0 -255 -130 -395.5t-366 -140.5q-208 0 -332 112l-114 -125zM332 520q0 -122 18 -215l477 533q-38 80 -91.5 117.5 t-129.5 37.5q-133 0 -203.5 -121.5t-70.5 -351.5zM381 211q40 -86 92.5 -125t130.5 -39q134 0 204.5 122t70.5 353q0 116 -21 221z" />
<glyph unicode="&#xf9;" horiz-adv-x="1318" d="M61 973v67l373 11q-10 -303 -10 -435v-165q0 -112 6 -168.5t23 -94.5q43 -100 151 -100q69 0 142 50.5t137 144.5v684l-154 6v67l373 11q-10 -388 -10 -433v-176q0 -225 10 -368l145 -6v-68h-348l-6 180q-94 -109 -178 -154.5t-191 -45.5q-100 0 -171 43t-105 124 q-20 50 -26.5 111.5t-6.5 208.5v131q0 225 -8 369zM391 1501q0 17 31 17h180q34 -65 106 -141.5t144 -123.5l-27 -49q-206 79 -327 174q-107 86 -107 123z" />
<glyph unicode="&#xfa;" horiz-adv-x="1318" d="M61 973v67l373 11q-10 -303 -10 -435v-165q0 -112 6 -168.5t23 -94.5q43 -100 151 -100q69 0 142 50.5t137 144.5v684l-154 6v67l373 11q-10 -388 -10 -433v-176q0 -225 10 -368l145 -6v-68h-348l-6 180q-94 -109 -178 -154.5t-191 -45.5q-100 0 -171 43t-105 124 q-20 50 -26.5 111.5t-6.5 208.5v131q0 225 -8 369zM504 1253q71 45 144.5 122.5t107.5 142.5h178q31 0 31 -17q0 -37 -107 -123q-119 -94 -328 -174z" />
<glyph unicode="&#xfb;" horiz-adv-x="1318" d="M61 973v67l373 11q-10 -303 -10 -435v-165q0 -112 6 -168.5t23 -94.5q43 -100 151 -100q69 0 142 50.5t137 144.5v684l-154 6v67l373 11q-10 -388 -10 -433v-176q0 -225 10 -368l145 -6v-68h-348l-6 180q-94 -109 -178 -154.5t-191 -45.5q-100 0 -171 43t-105 124 q-20 50 -26.5 111.5t-6.5 208.5v131q0 225 -8 369zM334 1262q106 70 217 256h211q111 -186 217 -256l-35 -54q-108 50 -176 94.5t-113 96.5q-84 -100 -286 -191z" />
<glyph unicode="&#xfc;" horiz-adv-x="1318" d="M61 973v67l373 11q-10 -303 -10 -435v-165q0 -112 6 -168.5t23 -94.5q43 -100 151 -100q69 0 142 50.5t137 144.5v684l-154 6v67l373 11q-10 -388 -10 -433v-176q0 -225 10 -368l145 -6v-68h-348l-6 180q-94 -109 -178 -154.5t-191 -45.5q-100 0 -171 43t-105 124 q-20 50 -26.5 111.5t-6.5 208.5v131q0 225 -8 369zM332 1386q0 52 35 86.5t88 34.5q52 0 86 -34t34 -87q0 -54 -33.5 -88t-86.5 -34q-54 0 -88.5 34t-34.5 88zM741 1386q0 52 35 86.5t88 34.5q52 0 86.5 -34.5t34.5 -86.5q0 -54 -34 -88t-87 -34q-54 0 -88.5 34t-34.5 88z " />
<glyph unicode="&#xfd;" horiz-adv-x="1107" d="M8 973v67h455v-67l-111 -6q25 -87 97 -275l172 -440l170 450q12 30 33.5 86.5t31.5 81.5q27 82 31 97l-160 6v67h377v-67l-98 -6q-28 -54 -127 -285l-306 -768q-79 -201 -169 -283t-228 -82q-41 0 -108 11l28 147q58 -18 115 -18q98 0 164.5 60t118.5 198l16 43l-266 665 q-107 258 -133 312zM477 1253q71 45 144.5 122.5t107.5 142.5h178q31 0 31 -17q0 -37 -107 -123q-120 -94 -327 -174z" />
<glyph unicode="&#xfe;" horiz-adv-x="1265" d="M59 -373l146 6q10 177 10 387v1029q0 228 -10 368l-144 4v68l371 10q-8 -270 -8 -438v-158q78 87 149.5 122.5t167.5 35.5q190 0 302 -145.5t112 -393.5q0 -90 -15.5 -170t-48 -148.5t-80.5 -118t-116.5 -77.5t-151.5 -28q-102 0 -175 36t-144 123v-143q0 -168 10 -363 l164 -6v-67h-539v67zM424 250q115 -164 252 -164q117 0 187.5 120t70.5 318q0 199 -70 315.5t-190 116.5q-70 0 -130 -39t-120 -124v-543z" />
<glyph unicode="&#xff;" horiz-adv-x="1107" d="M8 973v67h455v-67l-111 -6q25 -87 97 -275l172 -440l170 450q12 30 33.5 86.5t31.5 81.5q27 82 31 97l-160 6v67h377v-67l-98 -6q-28 -54 -127 -285l-306 -768q-79 -201 -169 -283t-228 -82q-41 0 -108 11l28 147q58 -18 115 -18q98 0 164.5 60t118.5 198l16 43l-266 665 q-107 258 -133 312zM270 1386q0 52 35 86.5t88 34.5t87 -34.5t34 -86.5q0 -54 -34 -88t-87 -34q-54 0 -88.5 34t-34.5 88zM680 1386q0 52 35 86.5t88 34.5t87 -34.5t34 -86.5q0 -54 -34 -88t-87 -34q-54 0 -88.5 34t-34.5 88z" />
<glyph unicode="&#x152;" horiz-adv-x="1957" d="M125 694q0 215 71.5 373t206.5 246q92 58 210 81t323 23h899v-368h-164l-22 290h-424q-11 -194 -11 -364v-215h474v-82h-474v-238q0 -168 11 -362h456l25 291h166v-369h-848q-261 0 -383 18.5t-221 75.5q-295 160 -295 600zM358 711q0 -383 177 -531q67 -57 149.5 -79.5 t222.5 -22.5h78q10 185 10 364v537q0 214 -10 360h-70q-147 0 -233.5 -22.5t-149.5 -77.5q-174 -149 -174 -528z" />
<glyph unicode="&#x153;" horiz-adv-x="1875" d="M111 518q0 259 129.5 401t365.5 142q131 0 222.5 -40t160.5 -128q63 86 147.5 127t198.5 41q119 0 203.5 -36t134.5 -107t73.5 -166.5t25.5 -225.5h-674q3 -102 10 -151.5t27 -100.5q79 -206 295 -206q141 0 260 102l49 -57q-53 -48 -107.5 -77t-116 -42.5t-139.5 -13.5 q-136 0 -225.5 39t-161.5 131q-44 -59 -100 -96.5t-125.5 -55.5t-155.5 -18q-238 0 -367.5 140t-129.5 398zM332 524q0 -234 69.5 -355.5t204.5 -121.5q134 0 204.5 121t70.5 350q0 231 -70.5 353t-204.5 122q-133 0 -203.5 -120.5t-70.5 -348.5zM1098 596h452 q-1 205 -53.5 301t-161.5 96q-112 0 -172 -101.5t-65 -295.5z" />
<glyph unicode="&#x178;" horiz-adv-x="1228" d="M-35 1350v67h524v-67l-147 -7q32 -66 160 -276l198 -326l179 340q108 198 133 262l-144 7v67h383v-67l-114 -7q-68 -98 -162 -270l-223 -422q-7 -86 -7 -200v-91q0 -150 9 -288l172 -6v-66h-580v66l174 6q6 210 6 288v91q0 96 -6 204l-307 484q-91 141 -139 204z M350 1663q0 52 35 86.5t88 34.5t87 -34t34 -87q0 -54 -34 -88.5t-87 -34.5q-54 0 -88.5 34.5t-34.5 88.5zM760 1663q0 52 35 86.5t88 34.5t87 -34t34 -87q0 -54 -34 -88.5t-87 -34.5q-54 0 -88.5 34.5t-34.5 88.5z" />
<glyph unicode="&#x2c6;" horiz-adv-x="1024" d="M190 1262q107 71 218 256h210q111 -185 218 -256l-35 -54q-108 50 -176 94.5t-113 96.5q-83 -99 -287 -191z" />
<glyph unicode="&#x2dc;" horiz-adv-x="1024" d="M160 1266q50 225 196 225q60 0 181 -39q108 -33 155 -33q93 0 105 82h65q-14 -119 -61.5 -174t-136.5 -55q-59 0 -177 35q-115 36 -170 36q-70 0 -90 -77h-67z" />
<glyph unicode="&#x2000;" horiz-adv-x="909" />
<glyph unicode="&#x2001;" horiz-adv-x="1819" />
<glyph unicode="&#x2002;" horiz-adv-x="909" />
<glyph unicode="&#x2003;" horiz-adv-x="1819" />
<glyph unicode="&#x2004;" horiz-adv-x="606" />
<glyph unicode="&#x2005;" horiz-adv-x="454" />
<glyph unicode="&#x2006;" horiz-adv-x="303" />
<glyph unicode="&#x2007;" horiz-adv-x="303" />
<glyph unicode="&#x2008;" horiz-adv-x="227" />
<glyph unicode="&#x2009;" horiz-adv-x="363" />
<glyph unicode="&#x200a;" horiz-adv-x="101" />
<glyph unicode="&#x2010;" horiz-adv-x="729" d="M98 496v151h533v-151h-533z" />
<glyph unicode="&#x2011;" horiz-adv-x="729" d="M98 496v151h533v-151h-533z" />
<glyph unicode="&#x2012;" horiz-adv-x="729" d="M98 496v151h533v-151h-533z" />
<glyph unicode="&#x2013;" d="M106 504v143h967v-143h-967z" />
<glyph unicode="&#x2014;" horiz-adv-x="2048" d="M-82 506v143h2214v-143h-2214z" />
<glyph unicode="&#x2018;" horiz-adv-x="565" d="M143 1108q0 158 246 430l53 -49q-121 -140 -143 -266q119 -21 119 -123q0 -58 -38 -96.5t-97 -38.5q-62 0 -101 40t-39 103z" />
<glyph unicode="&#x2019;" horiz-adv-x="565" d="M123 993q124 146 145 267q-62 12 -91.5 42t-29.5 82q0 57 38.5 95.5t95.5 38.5q63 0 102 -40.5t39 -103.5q0 -77 -58.5 -180t-185.5 -250z" />
<glyph unicode="&#x201a;" horiz-adv-x="565" d="M123 -291q124 146 145 266q-62 12 -91.5 42.5t-29.5 82.5q0 57 38.5 95t95.5 38q63 0 102 -40t39 -103q0 -78 -58.5 -181t-185.5 -247z" />
<glyph unicode="&#x201c;" horiz-adv-x="944" d="M143 1108q0 158 246 430l53 -49q-121 -140 -143 -266q119 -21 119 -123q0 -58 -38 -96.5t-97 -38.5q-62 0 -101 40t-39 103zM522 1108q0 154 244 430l55 -49q-124 -143 -145 -266q121 -21 121 -123q0 -58 -38.5 -96.5t-96.5 -38.5q-62 0 -101 40t-39 103z" />
<glyph unicode="&#x201d;" horiz-adv-x="944" d="M123 993q124 146 145 267q-62 12 -91.5 42t-29.5 82q0 57 38.5 95.5t95.5 38.5q63 0 102 -40.5t39 -103.5q0 -77 -58.5 -180t-185.5 -250zM502 993q125 148 143 267q-62 12 -90.5 42t-28.5 82q0 57 39 95.5t97 38.5q61 0 100 -40.5t39 -103.5q0 -155 -246 -430z" />
<glyph unicode="&#x201e;" horiz-adv-x="944" d="M123 -291q124 146 145 266q-62 12 -91.5 42.5t-29.5 82.5q0 57 38.5 95t95.5 38q63 0 102 -40t39 -103q0 -78 -58.5 -181t-185.5 -247zM502 -291q125 147 143 266q-61 12 -90 42t-29 83q0 57 39 95t97 38q61 0 100 -40t39 -103q0 -153 -246 -428z" />
<glyph unicode="&#x2022;" horiz-adv-x="1024" d="M203 725q0 126 90.5 215.5t218.5 89.5q129 0 219 -90t90 -219t-90 -219t-219 -90q-130 0 -219.5 90.5t-89.5 222.5z" />
<glyph unicode="&#x2026;" horiz-adv-x="1769" d="M160 115q0 56 38 93.5t95 37.5t95 -38t38 -95t-38 -95t-95 -38q-59 0 -96 37.5t-37 97.5zM750 115q0 56 38 93.5t95 37.5t95 -38t38 -95t-38 -95t-95 -38q-59 0 -96 37.5t-37 97.5zM1339 115q0 56 38.5 93.5t95.5 37.5t95 -38t38 -95t-38 -95t-95 -38q-59 0 -96.5 37.5 t-37.5 97.5z" />
<glyph unicode="&#x202f;" horiz-adv-x="363" />
<glyph unicode="&#x2039;" horiz-adv-x="636" d="M86 522l377 393h82l-213 -393l205 -395h-74z" />
<glyph unicode="&#x203a;" horiz-adv-x="636" d="M94 915h80l379 -393l-379 -395h-74l205 395z" />
<glyph unicode="&#x205f;" horiz-adv-x="454" />
<glyph unicode="&#x20ac;" d="M-25 557l33 88h178q-2 20 -2 45q0 51 4 92h-213l33 88h191q43 266 208 417t414 151q184 0 365 -90l-45 -123q-138 135 -312 135q-161 0 -267 -128t-138 -362h590l-35 -88h-563q-4 -74 -4 -77q0 -29 2 -60h518l-33 -88h-479q26 -238 131.5 -363.5t282.5 -125.5 q159 0 296 88l35 -78q-144 -98 -350 -98q-259 0 -423.5 153t-198.5 424h-218z" />
<glyph unicode="&#x2122;" horiz-adv-x="1882" d="M8 1200v217h727v-217h-127l-10 154h-143q-4 -168 -4 -201v-250q0 -139 6 -207l112 -4v-53h-395v53l111 4q6 83 6 207v250q0 79 -4 201h-142l-12 -154h-125zM788 639v55l97 2q6 44 6 189v475l-103 4v53h281l250 -534l256 534h260v-53l-102 -4v-475q0 -133 6 -189l96 -2 v-55h-354v55l94 2q6 81 6 189v360l-270 -563h-66l-270 573v-370q0 -121 6 -189l94 -2v-55h-287z" />
<glyph unicode="&#xe000;" horiz-adv-x="1044" d="M0 0v1044h1044v-1044h-1044z" />
</font>
</defs>
</svg>
